<svg width="136" height="135" viewBox="0 0 136 135" fill="none" xmlns="http://www.w3.org/2000/svg">
<path d="M83.5 132.5C78.917 134.761 70.5 134 70.5 134L60 106L94 111.5C94 111.5 91.7226 128.443 83.5 132.5Z" fill="white"/>
<path fill-rule="evenodd" clip-rule="evenodd" d="M62.1947 0H96.8462C116.647 0 127.098 5.51136 131.498 14.8807C139.748 31.4147 139.198 70.5454 107.847 66.1363H91.346C90.7959 68.3408 90.7959 72.7499 90.7959 73.8522C90.7959 77.7101 93.5461 79.9147 97.9463 81.017C105.647 82.6704 104.547 93.6931 97.3962 94.2442H95.1962C89.6959 94.2442 90.796 103.614 95.1962 103.614C104.547 104.165 108.397 113.534 106.747 122.903C113.347 122.903 114.447 134.477 106.747 133.375H79.2454C98.4963 121.801 81.4455 87.6306 83.0956 66.6874H62.1947C52.8442 66.1363 49.5441 68.892 49.5441 74.4033C49.5441 78.2613 52.2942 80.4658 56.6944 81.5681C64.3948 83.2215 63.2947 94.2442 56.1444 94.7953H50.6442C45.1439 94.7953 46.244 104.165 50.6442 104.165C69.895 101.96 73.7452 114.085 71.5451 123.454C78.1454 123.454 79.2454 135.028 71.5451 133.926H37.9936C24.793 133.926 18.1927 126.21 17.6427 108.023C16.5426 108.574 14.8926 108.574 13.7925 108.574H9.94233C4.44208 108.574 -0.508132 103.614 0.0418925 98.1022C0.0418925 92.5908 4.99212 87.6306 10.4924 88.1817H14.3425C15.4426 88.1817 16.5426 88.7329 17.6427 88.7329V70.5454C16.5426 70.5454 15.4426 71.0965 14.8926 71.0965H11.0424C5.54214 71.0965 0.591921 66.1363 1.14195 60.6249C1.14195 55.1136 6.09215 50.1534 11.5924 50.7045H15.4426C16.5426 50.7045 17.0927 50.7045 17.6427 51.2556V45.7443C17.6427 41.8863 18.1927 38.0284 18.7427 34.7215C17.6427 34.7215 16.5426 34.7215 15.4426 34.1704L12.1424 33.0681C6.64219 31.4147 3.34205 25.9034 4.99212 20.392C6.6422 14.8807 12.1424 11.5739 17.6427 13.2273L20.9428 14.3295C22.5929 14.8807 24.243 15.9829 25.343 17.0852C34.1434 7.7159 45.1439 1.65341 62.1947 0Z" fill="url(#paint0_linear_1372_13937)"/>
<path d="M57.4505 41.9432C63.2221 41.9432 67.9009 37.2549 67.9009 31.4716C67.9009 25.6883 63.2221 21 57.4505 21C51.6788 21 47 25.6883 47 31.4716C47 37.2549 51.6788 41.9432 57.4505 41.9432Z" fill="#FEFEFE"/>
<path d="M122.148 27.0067C123.97 27.0067 125.448 24.2924 125.448 20.9442C125.448 17.596 123.97 14.8817 122.148 14.8817C120.325 14.8817 118.848 17.596 118.848 20.9442C118.848 24.2924 120.325 27.0067 122.148 27.0067Z" fill="#FEFEFE"/>
<path d="M102.19 55.3678C97.6217 60.454 84.9997 59.0517 84.9997 48" stroke="white" stroke-width="3" stroke-linecap="round"/>
<circle cx="56.9551" cy="31.4648" r="4" fill="#0085FF"/>
<defs>
<linearGradient id="paint0_linear_1372_13937" x1="41" y1="56.1248" x2="12.9998" y2="57.1226" gradientUnits="userSpaceOnUse">
<stop stop-color="#0085FF"/>
<stop offset="1" stop-color="#156AE1"/>
</linearGradient>
</defs>
</svg>
