<svg width="130" height="153" viewBox="0 0 130 153" fill="none" xmlns="http://www.w3.org/2000/svg">
<path d="M52.4521 113.869C53.3293 113.674 53.6314 112.963 54.148 112.388C54.5963 111.92 54.9082 111.666 55.5515 112.076C56.0875 112.417 56.1655 112.768 55.9316 113.372C55.532 114.473 54.7425 115.477 54.1284 116.442C53.6508 117.193 53.1148 116.852 52.4033 116.549C49.4404 114.815 49.4404 114.815 47.53 117.816C43.4364 124.249 39.411 130.575 35.3174 137.007C33.8164 139.366 33.1147 139.522 30.8632 138.089C29.8983 137.475 28.9334 136.861 27.9685 136.247C25.5027 134.678 25.3078 133.8 26.877 131.335C30.0837 126.296 33.2903 121.257 36.497 116.218C37.6569 114.395 38.8849 112.465 40.0448 110.643C40.7271 109.571 40.6101 109.044 39.538 108.362C36.965 106.725 36.9649 106.725 38.6024 104.152C38.6706 104.044 38.8071 103.83 38.8753 103.723C39.4601 103.041 39.7135 101.696 40.9318 102.622C42.1112 103.372 41.2827 104.2 40.6979 104.883C40.0839 105.848 40.308 106.442 41.2339 106.881C42.7641 107.553 50.9414 112.456 52.4521 113.869Z" fill="#FE9715"/>
<path d="M119.878 49.5518C118.377 51.9105 116.136 52.5927 114.42 51.5011C98.5531 41.4035 82.7931 31.3741 66.9259 21.2765C64.7817 19.912 64.6355 18.0114 66.4094 15.2239C68.7292 11.5787 70.9806 8.04082 73.3003 4.39565C75.3472 1.17933 77.1698 0.682267 79.6356 2.25149C95.074 12.0762 110.62 21.9691 126.058 31.7938C128.738 33.4995 128.923 35.5755 126.808 38.899C126.019 39.9029 120.697 48.2653 119.878 49.5518Z" fill="#FE9715"/>
</svg>
