<svg width="59" height="56" viewBox="0 0 59 56" fill="none" xmlns="http://www.w3.org/2000/svg">
<path d="M23.2335 42.1017C23.2335 41.993 23.2335 41.83 23.2335 41.7213C23.2878 44.221 23.2878 46.6662 23.3422 49.1659C23.3422 50.8504 22.9618 52.1546 21.875 53.4044C22.9075 54.2195 25.2984 54.0021 26.4395 53.187C29.9716 50.6874 24.8093 41.341 26.4939 40.4172L23.2335 42.1017Z" fill="#E8B031"/>
<path d="M33.2868 41.6669C32.852 42.482 33.3411 44.5469 33.3411 45.525C33.3411 46.9922 33.3954 48.405 33.3954 49.8722C33.3954 51.0133 31.9283 53.7303 32.6347 54.6541C33.7215 56.1212 36.4928 54.4367 37.1992 53.2412C37.797 52.2088 37.4709 50.6329 37.4709 49.4918C37.4709 47.2095 36.7102 44.9273 36.8188 42.6993L33.2868 41.6669Z" fill="#E8B031"/>
<path d="M10.0288 28.1352C9.10501 29.385 8.50727 30.6349 7.25746 31.6673C5.9533 32.7541 4.32311 32.9715 2.69292 33.2975C0.573673 33.7322 -1.21954 35.8515 1.06273 37.4273C3.6167 39.2205 8.18123 36.7209 10.1375 35.0364C11.0612 34.2756 12.8545 32.6454 12.7458 31.3413C12.7458 30.7435 10.1375 27.9722 10.0288 28.1352Z" fill="#E8B031"/>
<path d="M49.1534 34.3299C49.0448 34.4386 53.2289 39.0032 53.6093 39.2749C54.5874 40.0356 55.8916 40.9051 57.1414 40.6334C59.2606 40.1986 59.641 37.4816 57.9021 36.1775C56.0003 34.7647 53.9897 33.2975 52.5225 31.3956C52.5225 31.3956 49.1534 34.2756 49.1534 34.3299Z" fill="#E8B031"/>
<path d="M14.6474 33.9503C13.9953 34.711 -2.0349 27.2121 4.59454 16.8876C8.507 10.8015 18.2882 12.5947 22.6353 17.594C21.0595 10.7472 24.1025 -1.75095 33.8293 0.205281C40.7305 1.56377 41.2195 14.714 37.7418 20.7457C41.5456 16.9963 52.5222 15.9095 55.7282 22.1042C59.4777 29.4944 51.9244 36.3955 45.295 36.5586C47.849 36.5042 51.7614 44.8725 45.621 48.948C36.1659 55.2514 26.7652 39.8189 28.1236 39.1125C18.4512 58.9465 0.0843463 44.9812 14.6474 33.9503Z" fill="#FFD93B"/>
<path d="M32.2536 6.72588C32.2536 6.18249 32.3622 5.63908 32.6339 5.20436C35.7313 0.0964279 38.72 9.00816 37.1441 11.9425C35.677 14.8225 32.1992 9.93193 32.2536 6.72588Z" fill="#FFFEFF"/>
<path d="M44.4257 21.6694C44.4257 21.615 44.4257 21.615 44.3714 21.5607C43.1759 17.7026 52.631 18.5177 51.2725 21.778C50.3488 24.0603 45.2952 24.0603 44.4257 21.6694Z" fill="#FFFEFF"/>
<path d="M24.2653 21.4521C21.6027 20.8 19.9182 23.7343 20.0812 25.9623C20.1355 26.7773 21.3853 26.6687 21.331 25.8536C21.2223 24.169 22.4178 21.9955 24.4284 22.7562C25.8412 23.2996 25.8955 25.5275 25.8955 26.7773C25.8955 27.5924 27.1453 27.4294 27.1453 26.6687C27.091 24.5494 26.6563 22.0498 24.2653 21.4521Z" fill="#4C594F"/>
<path d="M36.1119 22.539C33.2862 21.9413 31.4386 24.9843 31.656 27.4296C31.7103 28.2447 32.9602 28.136 32.9058 27.3209C32.7971 25.6907 34.1013 22.865 36.1662 23.8431C37.416 24.4409 37.4704 26.7231 37.4704 27.8643C37.4704 28.6794 38.7202 28.5163 38.7202 27.7556C38.6115 25.9624 38.2311 22.9737 36.1119 22.539Z" fill="#4C594F"/>
<path d="M37.9592 31.1864C33.3947 35.914 24.809 36.4031 20.3531 31.2408C19.8641 30.6431 18.8316 31.3495 19.3207 31.9472C24.2656 37.7072 33.7207 37.3268 38.883 32.0015C39.4807 31.4038 38.5026 30.6431 37.9592 31.1864Z" fill="#4C594F"/>
</svg>
