<svg width="69" height="58" viewBox="0 0 69 58" fill="none" xmlns="http://www.w3.org/2000/svg">
<path d="M60.3892 57.5002H8.11632C6.03678 57.5002 4.04241 56.6741 2.57195 55.2036C1.10149 53.7331 0.275391 51.7388 0.275391 49.6592V7.84093C0.275391 5.76139 1.10149 3.76702 2.57195 2.29656C4.04241 0.826096 6.03678 0 8.11632 0H60.3892C62.4687 0 64.4631 0.826096 65.9336 2.29656C67.404 3.76702 68.2301 5.76139 68.2301 7.84093V49.6592C68.2301 51.7388 67.404 53.7331 65.9336 55.2036C64.4631 56.6741 62.4687 57.5002 60.3892 57.5002ZM8.11632 5.22729C7.42314 5.22729 6.75835 5.50265 6.2682 5.99281C5.77804 6.48296 5.50268 7.14775 5.50268 7.84093V49.6592C5.50268 50.3524 5.77804 51.0172 6.2682 51.5074C6.75835 51.9975 7.42314 52.2729 8.11632 52.2729H60.3892C61.0824 52.2729 61.7472 51.9975 62.2373 51.5074C62.7275 51.0172 63.0028 50.3524 63.0028 49.6592V7.84093C63.0028 7.14775 62.7275 6.48296 62.2373 5.99281C61.7472 5.50265 61.0824 5.22729 60.3892 5.22729H8.11632Z" fill="#DFE0E1"/>
<path d="M47.3214 26.1365C45.7706 26.1365 44.2547 25.6766 42.9652 24.815C41.6758 23.9534 40.6708 22.7289 40.0773 21.2961C39.4839 19.8634 39.3286 18.2868 39.6311 16.7658C39.9337 15.2448 40.6805 13.8477 41.777 12.7511C42.8736 11.6546 44.2707 10.9078 45.7917 10.6053C47.3127 10.3027 48.8893 10.458 50.322 11.0514C51.7547 11.6449 52.9793 12.6499 53.8409 13.9393C54.7025 15.2288 55.1623 16.7447 55.1623 18.2955C55.1623 20.3751 54.3362 22.3694 52.8658 23.8399C51.3953 25.3104 49.4009 26.1365 47.3214 26.1365ZM47.3214 15.6819C46.8045 15.6819 46.2992 15.8352 45.8693 16.1224C45.4395 16.4096 45.1045 16.8177 44.9067 17.2953C44.7089 17.7729 44.6571 18.2984 44.758 18.8054C44.8588 19.3124 45.1078 19.7781 45.4733 20.1436C45.8388 20.5092 46.3045 20.7581 46.8115 20.8589C47.3185 20.9598 47.844 20.908 48.3216 20.7102C48.7992 20.5124 49.2074 20.1774 49.4946 19.7476C49.7818 19.3178 49.935 18.8125 49.935 18.2955C49.935 17.6023 49.6597 16.9376 49.1695 16.4474C48.6794 15.9572 48.0146 15.6819 47.3214 15.6819Z" fill="#DFE0E1"/>
<path d="M60.3889 57.5001C59.9584 57.4979 59.5352 57.3894 59.1567 57.1842C58.7783 56.979 58.4563 56.6835 58.2196 56.324L46.8764 39.3353C46.6373 38.9795 46.3144 38.688 45.9361 38.4865C45.5578 38.2849 45.1357 38.1795 44.707 38.1795C44.2784 38.1795 43.8563 38.2849 43.478 38.4865C43.0997 38.688 42.7768 38.9795 42.5377 39.3353L41.6491 40.6421C41.2406 41.1493 40.6574 41.4857 40.0139 41.5854C39.3704 41.6851 38.7128 41.541 38.1699 41.1813C37.6271 40.8216 37.2381 40.2722 37.0791 39.6406C36.9201 39.0091 37.0026 38.341 37.3104 37.7671L38.1729 36.4342C38.8882 35.3559 39.8591 34.4714 40.9992 33.8596C42.1393 33.2477 43.4131 32.9275 44.707 32.9275C46.001 32.9275 47.2748 33.2477 48.4149 33.8596C49.555 34.4714 50.5259 35.3559 51.2412 36.4342L62.5582 53.449C62.9365 54.0252 63.0718 54.7275 62.9348 55.4031C62.7977 56.0786 62.3994 56.6726 61.8264 57.0558C61.4055 57.3506 60.9028 57.506 60.3889 57.5001Z" fill="#DFE0E1"/>
<path d="M8.11641 57.5002C7.6156 57.4989 7.12572 57.3537 6.70504 57.082C6.12354 56.707 5.71446 56.1168 5.56748 55.4406C5.42049 54.7645 5.54761 54.0577 5.92095 53.4752L22.2039 28.3319C22.9106 27.2399 23.8779 26.3409 25.0185 25.7159C26.1592 25.0908 27.4374 24.7593 28.7381 24.7512C30.0316 24.7507 31.3051 25.0703 32.4452 25.6813C33.5852 26.2924 34.5564 27.1761 35.2722 28.2535L52.0518 53.449C52.3596 54.0229 52.4421 54.691 52.2831 55.3225C52.1241 55.9541 51.7351 56.5035 51.1923 56.8632C50.6494 57.2229 49.9918 57.367 49.3483 57.2673C48.7047 57.1676 48.1216 56.8312 47.7131 56.324L30.9074 31.1546C30.6706 30.7951 30.3487 30.4996 29.9703 30.2944C29.5918 30.0893 29.1685 29.9807 28.7381 29.9785C28.3052 29.9836 27.8803 30.0961 27.5017 30.3059C27.1231 30.5158 26.8025 30.8164 26.5687 31.1808L10.3119 56.2979C10.0757 56.666 9.75099 56.9689 9.36743 57.179C8.98386 57.389 8.55372 57.4994 8.11641 57.5002Z" fill="#DFE0E1"/>
</svg>
