<svg width="178" height="178" viewBox="0 0 178 178" fill="none" xmlns="http://www.w3.org/2000/svg">
<rect x="0.679688" y="0.679993" width="176.64" height="176.64" rx="88.32" fill="#C7C7C7"/>
<path fill-rule="evenodd" clip-rule="evenodd" d="M115.497 71.336C115.497 85.9693 103.634 97.832 89.001 97.832C74.3676 97.832 62.505 85.9693 62.505 71.336C62.505 56.7027 74.3676 44.84 89.001 44.84C103.634 44.84 115.497 56.7027 115.497 71.336ZM106.665 71.336C106.665 81.0916 98.7565 89 89.001 89C79.2454 89 71.337 81.0916 71.337 71.336C71.337 61.5804 79.2454 53.672 89.001 53.672C98.7565 53.672 106.665 61.5804 106.665 71.336Z" fill="#79747E"/>
<path d="M89.001 111.08C60.4101 111.08 36.0499 127.986 26.7705 151.672C29.031 153.917 31.4123 156.04 33.9038 158.031C40.8137 136.285 62.4905 119.912 89.001 119.912C115.511 119.912 137.188 136.285 144.098 158.031C146.59 156.04 148.971 153.917 151.231 151.672C141.952 127.986 117.592 111.08 89.001 111.08Z" fill="#79747E"/>
</svg>
