<svg width="133" height="37" viewBox="0 0 133 37" fill="none" xmlns="http://www.w3.org/2000/svg">
<g clip-path="url(#clip0_801_5359)">
<path fill-rule="evenodd" clip-rule="evenodd" d="M44.0422 11.3736H48.7443C49.4334 11.3736 50.0589 11.5117 50.6155 11.788C51.1721 12.0642 51.6121 12.4467 51.9302 12.9354C52.2482 13.4295 52.4073 13.9819 52.4073 14.5928C52.4073 14.9806 52.3331 15.3578 52.1793 15.7137C52.0309 16.0697 51.803 16.3671 51.5061 16.6009C51.2039 16.8346 50.8435 16.9674 50.43 16.9887V17.0205C50.9071 17.0312 51.3365 17.1587 51.7128 17.403C52.0945 17.6527 52.3914 17.9768 52.6087 18.3805C52.8261 18.7789 52.9321 19.2039 52.9321 19.6554C52.9321 20.2982 52.773 20.8773 52.455 21.3872C52.1316 21.8972 51.6916 22.3009 51.1297 22.5878C50.5731 22.88 49.9423 23.0234 49.2479 23.0234L44.0422 23.034V11.3736ZM48.7602 16.2503C49.0305 16.2503 49.2744 16.1918 49.497 16.0697C49.7196 15.9528 49.8946 15.7881 50.0218 15.5756C50.149 15.3631 50.2126 15.1294 50.2126 14.8691C50.2126 14.6035 50.149 14.3697 50.0218 14.1625C49.8946 13.9554 49.7143 13.7907 49.4758 13.6791C49.2426 13.5623 48.9722 13.5038 48.67 13.5038H46.2316V16.2503H48.7602ZM49.0729 20.9038C49.3857 20.9038 49.6719 20.8401 49.9158 20.7179C50.1596 20.601 50.3558 20.431 50.4883 20.2132C50.6314 19.9954 50.695 19.7457 50.695 19.4642C50.695 19.1986 50.6314 18.9595 50.4989 18.747C50.3664 18.5345 50.1808 18.3646 49.9529 18.2424C49.7196 18.1149 49.4599 18.0511 49.1789 18.0511H46.2316V20.9144L49.0729 20.9038ZM57.0828 18.0936C57.0828 18.6036 56.9821 19.103 56.7753 19.597H56.8071L61.9173 12.0483C62.087 11.7986 62.2619 11.6233 62.4315 11.5223C62.6012 11.4214 62.8185 11.3736 63.0783 11.3736H64.8117V23.034H62.6383L62.6224 15.7881C62.6224 15.2781 62.7125 14.8053 62.898 14.3644H62.8503L57.3054 22.5453C57.0828 22.8694 56.8283 23.034 56.5421 23.034H54.9041V11.3736H57.0775L57.0828 18.0936ZM67.7538 11.3736H72.4134C73.1714 11.3736 73.85 11.533 74.449 11.857C75.048 12.1811 75.5198 12.6273 75.8591 13.1957C76.2036 13.7694 76.3733 14.4175 76.3733 15.1347C76.3733 15.8572 76.1983 16.4999 75.8591 17.0684C75.5198 17.6368 75.048 18.083 74.449 18.4071C73.85 18.7258 73.1714 18.8905 72.4134 18.8905H69.9431V23.034H67.7538V11.3736ZM72.4134 16.8027C72.758 16.8027 73.0601 16.7284 73.3305 16.5849C73.5955 16.4415 73.8023 16.245 73.956 15.99C74.1044 15.7403 74.1839 15.4534 74.1839 15.1347C74.1839 14.816 74.1044 14.5291 73.956 14.2794C73.8023 14.0244 73.5955 13.8279 73.3305 13.6844C73.0601 13.541 72.758 13.4719 72.4134 13.4719H69.9431V16.8027H72.4134ZM76.7125 11.3736H85.6872V13.4719H82.2998V23.034H80.1105V13.4719H76.7125V11.3736ZM90.649 22.3116C90.5217 22.5028 90.3945 22.6516 90.2567 22.7578C90.1242 22.8587 89.9598 22.9278 89.7743 22.9703C89.5835 23.0128 89.329 23.034 89.0162 23.034H87.7546L89.8432 19.4429C89.9333 19.2889 89.9757 19.1136 89.9757 18.9064C89.9757 18.7577 89.9545 18.6089 89.9174 18.4549C89.875 18.3008 89.822 18.168 89.7531 18.0511L86.0371 11.3736H87.8023C88.1363 11.3736 88.4013 11.4267 88.5922 11.533C88.7883 11.6392 88.9473 11.8198 89.0746 12.0801L91.2533 16.0643C91.3169 16.1812 91.3593 16.2875 91.3911 16.3778C91.4282 16.4734 91.4441 16.569 91.4441 16.6699C91.4441 16.7815 91.4229 16.8877 91.3858 16.9993L94.1264 12.0961C94.2537 11.8305 94.4127 11.6445 94.6035 11.5383C94.7944 11.4267 95.0541 11.3736 95.3881 11.3736H97.1639L90.649 22.3116ZM97.1745 17.2065C97.1745 16.0909 97.4396 15.0763 97.9644 14.1625C98.4945 13.2488 99.2154 12.5317 100.133 12.0111C101.044 11.4852 102.062 11.2195 103.181 11.2195C104.299 11.2195 105.317 11.4852 106.239 12.0111C107.156 12.5317 107.883 13.2488 108.407 14.1625C108.938 15.0763 109.203 16.0909 109.203 17.2065C109.203 18.3167 108.938 19.3261 108.407 20.2398C107.883 21.1535 107.156 21.876 106.239 22.4019C105.317 22.9225 104.299 23.1881 103.181 23.1881C102.062 23.1881 101.044 22.9225 100.133 22.4019C99.2154 21.876 98.4945 21.1535 97.9644 20.2398C97.4396 19.3261 97.1745 18.3167 97.1745 17.2065ZM99.3639 17.2065C99.3639 17.9236 99.5335 18.5717 99.8728 19.1614C100.207 19.7457 100.668 20.2132 101.251 20.5479C101.834 20.8879 102.481 21.0579 103.191 21.0579C103.902 21.0579 104.548 20.8879 105.137 20.5479C105.72 20.2132 106.176 19.7457 106.515 19.1614C106.849 18.5717 107.013 17.9236 107.013 17.2065C107.013 16.4893 106.849 15.8306 106.515 15.2462C106.176 14.6566 105.72 14.1944 105.137 13.8544C104.554 13.5144 103.902 13.3498 103.191 13.3498C102.481 13.3498 101.834 13.5144 101.251 13.8544C100.668 14.1944 100.207 14.6619 99.8728 15.2516C99.5335 15.8412 99.3639 16.4946 99.3639 17.2065ZM116.258 16.8506C116.73 16.9356 117.149 17.1109 117.509 17.3818C117.875 17.6474 118.161 17.9821 118.363 18.3805C118.57 18.7789 118.676 19.2145 118.676 19.6767C118.676 20.3513 118.495 20.9516 118.145 21.4829C117.79 22.0141 117.292 22.4284 116.656 22.7259C116.014 23.0234 115.288 23.1722 114.467 23.1722C113.724 23.1722 112.993 23.0128 112.267 22.7047C111.546 22.3913 110.952 21.9928 110.485 21.5041L110.994 20.6913C111.079 20.5745 111.18 20.4788 111.307 20.4098C111.434 20.346 111.572 20.3088 111.715 20.3088C111.901 20.3088 112.07 20.362 112.229 20.4682C112.548 20.6807 112.897 20.8454 113.274 20.9516C113.645 21.0632 114.016 21.1163 114.376 21.1163C115.071 21.1163 115.617 20.9729 116.014 20.686C116.412 20.3992 116.613 20.0007 116.613 19.5014C116.613 19.1614 116.513 18.8745 116.311 18.6302C116.11 18.3911 115.829 18.2105 115.468 18.083C115.113 17.9608 114.705 17.8971 114.239 17.8971H113.152V15.9475H114.233C114.79 15.9475 115.235 15.8359 115.574 15.6128C115.919 15.3844 116.089 15.0709 116.089 14.6672C116.089 14.205 115.93 13.8651 115.617 13.6419C115.299 13.4188 114.885 13.3073 114.387 13.3073C114.048 13.3073 113.714 13.3657 113.375 13.4879C113.041 13.6048 112.669 13.7907 112.267 14.0404C112.129 14.1147 111.986 14.1519 111.837 14.1519C111.71 14.1519 111.588 14.12 111.477 14.051C111.36 13.9819 111.265 13.881 111.19 13.7376L110.735 12.8929C111.169 12.3936 111.742 11.9898 112.447 11.6817C113.157 11.3736 113.883 11.2195 114.626 11.2195C115.293 11.2195 115.893 11.3524 116.417 11.6127C116.947 11.8783 117.366 12.2501 117.663 12.7335C117.965 13.217 118.114 13.7801 118.114 14.4122C118.114 15.0072 117.944 15.5278 117.61 15.9687C117.271 16.4096 116.82 16.7018 116.258 16.8506ZM122.832 11.3842V15.5278H125.307C126.06 15.5278 126.738 15.6872 127.337 16.0059C127.942 16.33 128.408 16.7762 128.748 17.3446C129.092 17.913 129.262 18.5611 129.262 19.2783C129.262 20.0007 129.092 20.6435 128.748 21.2172C128.408 21.7857 127.942 22.2319 127.337 22.5559C126.738 22.88 126.06 23.0394 125.307 23.0394H120.642V11.3842H122.832ZM122.832 20.9463H125.307C125.646 20.9463 125.949 20.8719 126.219 20.7285C126.484 20.5851 126.696 20.3885 126.844 20.1335C126.998 19.8839 127.072 19.597 127.072 19.2783C127.072 18.9595 126.998 18.6727 126.844 18.423C126.696 18.168 126.484 17.9714 126.219 17.828C125.949 17.6846 125.646 17.6155 125.307 17.6155H122.832V20.9463ZM130.81 23.034V11.3842H132.999V23.034H130.81Z" fill="white"/>
<path fill-rule="evenodd" clip-rule="evenodd" d="M46.0407 27.8575L44.3656 25.8708H44.0422V30.0621H44.9328V27.7991L45.9824 29.1112H46.0937L47.1433 27.7991V30.0621H48.0392V25.8708H47.7159L46.0407 27.8575ZM50.8859 29.0103C50.6844 29.4353 50.43 29.499 50.0218 29.329L49.8999 30.0568C50.9442 30.4499 51.3895 30.009 51.7711 29.1591L53.3456 25.9717V25.8814H52.3967L51.5485 27.7301H51.522L50.5731 25.8814H49.5924V25.9983L51.0608 28.6331L50.8859 29.0103ZM55.4501 26.912C55.4501 26.6357 55.731 26.5082 56.0067 26.5082C56.2929 26.5082 56.5527 26.6835 56.5527 27.0023C56.5527 27.2679 56.3194 27.4857 56.0014 27.4857H55.6939V28.1975H56.0067C56.4255 28.1975 56.7117 28.4631 56.7117 28.7978C56.7117 29.1484 56.4414 29.4034 56.0067 29.4034C55.6197 29.4034 55.3069 29.1591 55.3069 28.7447H54.5065C54.5065 29.6956 55.1161 30.1471 56.0067 30.1471C57.0298 30.1471 57.6129 29.6159 57.6129 28.8509C57.6129 28.3303 57.3637 28.001 56.9079 27.7938C57.1941 27.6185 57.3849 27.321 57.3849 26.981C57.3849 26.3223 56.8707 25.8017 56.0067 25.8017C55.2857 25.8017 54.6337 26.1417 54.6655 26.912H55.4501ZM60.2475 25.8814H59.3781V30.0621H61.1381C62.0128 30.0621 62.527 29.4831 62.6118 28.8084C62.7072 28.001 62.1877 27.1829 61.1381 27.1829H60.2475V25.9876C60.2475 25.9558 60.2475 25.9186 60.2475 25.8814ZM61.1381 27.9744C61.5569 27.9744 61.7954 28.325 61.7583 28.7022C61.7159 29.1006 61.4508 29.2812 60.9897 29.2812C60.7405 29.2812 60.4914 29.2759 60.2475 29.2759V27.9744H61.048C61.0798 27.9744 61.1116 27.9744 61.1381 27.9744ZM64.112 25.8814H63.2214V30.0621H64.112V25.8814ZM67.001 25.8814H66.1105V30.0621H67.001V28.3835C67.1813 28.3835 67.494 28.3835 67.6531 28.341L68.7027 30.0621H69.7099V29.9293L68.4323 27.9957C68.6921 27.7407 68.8352 27.3635 68.9571 26.8854C69.0472 26.572 69.2275 26.471 69.5614 26.4976V25.892C68.6444 25.7008 68.2786 26.1045 68.1355 26.6251C68.0241 27.0979 67.9393 27.4113 67.722 27.5335C67.5523 27.6132 67.2555 27.6079 67.001 27.6079V25.8814ZM73.8023 29.3715L74.1256 30.0621H75.0533V29.94L73.1449 25.8495H72.7368L70.8178 29.94V30.0621H71.7455L72.0688 29.3715H73.8023ZM72.9382 27.2413L73.516 28.6172H72.3604L72.9382 27.2413ZM77.9106 26.6835H79.045V30.0621H79.9356V25.8814C79.0821 25.8814 77.9954 25.8814 77.1313 25.8814L76.8186 28.835C76.7655 29.2919 76.6648 29.4512 76.1665 29.3981L76.1453 30.0462C77.2426 30.2003 77.6031 29.9506 77.7091 28.8616L77.9106 26.6835ZM82.8034 25.8814H81.9341V30.0621H83.6993C84.6588 30.0621 85.1836 29.3662 85.1836 28.6172C85.1836 27.8735 84.6588 27.1829 83.6993 27.1829H82.8034V25.8814ZM83.6993 27.9744C84.0863 27.9744 84.3195 28.2666 84.3248 28.6172C84.3301 28.9678 84.0916 29.2759 83.6993 29.2759C83.4024 29.2865 83.095 29.2759 82.8034 29.2759V27.9744H83.6993ZM90.2196 30.0621V25.8814H89.3237V27.4804H87.7281V25.8814H86.8428V30.0621H87.7281V28.2932H89.3237V30.0621H90.2196ZM94.6884 29.3715L95.0117 30.0621H95.9394V29.94L94.031 25.8495H93.6175L91.7039 29.94V30.0621H92.6315L92.9549 29.3715H94.6884ZM93.8243 27.2413L94.4021 28.6172H93.2465L93.8243 27.2413ZM97.1268 29.9293V30.0621H98.0757L98.9345 28.6756H99.6766V30.0621H100.573V25.8814H98.7967C97.8372 25.8814 97.3177 26.572 97.3177 27.3104C97.323 27.8416 97.5933 28.3038 98.0651 28.5428L97.1268 29.9293ZM98.7967 27.9425C98.415 27.9425 98.1817 27.6504 98.1817 27.2944C98.1817 26.9385 98.415 26.6623 98.7967 26.6623H99.6872V27.9425H98.7967ZM105.911 30.0621C107.639 30.0621 109.372 30.0621 111.106 30.0621V25.8814H110.215V29.2494H108.948V25.8814H108.058V29.2494H106.801V25.8814H105.911V30.0621ZM113.995 25.8814H113.109V30.0621H113.995V28.3835C114.18 28.3835 114.488 28.3835 114.647 28.341L115.696 30.0621H116.704V29.9293L115.431 27.9957C115.686 27.7407 115.829 27.3635 115.956 26.8854C116.041 26.572 116.221 26.471 116.555 26.4976V25.892C115.638 25.7008 115.272 26.1045 115.134 26.6251C115.018 27.0979 114.933 27.4113 114.716 27.5335C114.546 27.6132 114.249 27.6079 113.995 27.6079V25.8814ZM122.201 27.9744C122.201 26.572 121.172 25.8176 120.08 25.8176C118.972 25.8176 117.944 26.5667 117.944 27.9744C117.944 29.3822 118.951 30.1312 120.064 30.1312C121.326 30.1312 122.201 29.2441 122.201 27.9744ZM118.84 27.9744C118.84 27.0873 119.423 26.641 120.08 26.641C120.732 26.641 121.315 27.082 121.315 27.9744C121.315 28.8881 120.722 29.3184 120.075 29.3184C119.407 29.3184 118.84 28.8881 118.84 27.9744ZM125.254 26.6835H126.394V30.0621H127.279V25.8814C126.431 25.8814 125.339 25.8814 124.475 25.8814L124.167 28.835C124.114 29.2919 124.014 29.4512 123.51 29.3981L123.494 30.0462C124.592 30.2003 124.952 29.9506 125.053 28.8616L125.254 26.6835ZM131.748 29.3715L132.077 30.0621H132.999V29.94L131.091 25.8495H130.682L128.763 29.94V30.0621H129.691L130.014 29.3715H131.748ZM130.884 27.2413L131.462 28.6172H130.306L130.884 27.2413Z" fill="white"/>
<path fill-rule="evenodd" clip-rule="evenodd" d="M21.4916 36.9628C21.0145 36.9841 20.5427 37 20.0816 37H9.82404L7.89447 29.7541L7.81495 29.4406L7.73013 29.1272L7.64532 28.8191L7.5658 28.5057L7.48098 28.1922L7.40147 27.8841L7.31665 27.5707L7.23184 27.2573L7.15232 26.9439L7.0675 26.6357L6.98269 26.3223L6.90317 26.0089L6.81835 25.7008L6.73354 25.3874L6.65402 25.0739L6.56921 24.7605L6.48439 24.4524L6.40487 24.139L6.32006 23.8256L6.23524 23.5121L6.15573 23.204L6.07091 22.8906L5.98609 22.5772L5.90658 22.2691L5.82176 21.9556L5.73694 21.6422L5.65743 21.3341L5.57261 21.0207L5.48779 20.7072L5.40828 20.3938L5.32346 20.0857L5.23865 19.7723L5.15913 19.4589L5.07431 19.1454L4.9895 18.8373L4.90998 18.5239L4.82516 18.2105L4.74035 17.9024L4.66083 17.5889L4.57602 17.2755L4.4912 16.9621L4.41168 16.654L4.32687 16.3406L4.24735 16.0271L4.16254 15.719L4.07772 15.4056L3.9982 15.0922L3.91339 14.7787L3.82857 14.4706L3.74905 14.1572L3.66424 13.8438L3.57942 13.5357L3.49991 13.2223L3.41509 12.9088L3.33027 12.5954L3.25076 12.2873L3.16594 11.9739L3.08112 11.6604L3.00161 11.3523L2.91679 11.0389L2.83197 10.7255L2.75246 10.4121L2.66764 10.1039L2.58283 9.79052L2.50331 9.4771L2.41849 9.16367L2.33368 8.85556L2.25416 8.54214L2.16934 8.22871L2.08453 7.9206L2.00501 7.60718L1.9202 7.29375L1.83538 6.98033L1.75586 6.67222L1.67105 6.35879L1.58623 6.04537L1.50672 5.73726L1.4219 5.42383L1.33708 5.11041L1.25757 4.79698L1.17275 4.48887L1.08793 4.17545L1.00842 3.86202L0.923601 3.55391L0.844086 3.24049L0.759269 2.92706L0.674452 2.61364L0.594937 2.30553L0.51012 1.9921L0.425304 1.67868L0.345788 1.36525L0.260972 1.05714L0.176155 0.743719L0.0966394 0.430294L0.0118228 0.122182L0.0012207 0.0796841V0H0.292778H0.796376H1.29997H1.80887H2.31247H2.81607H3.32497H3.82857H4.33217H4.84107H5.34467H5.84826H6.35716H6.86076H7.36436H7.87326H8.37686H8.88046H9.38936H9.89296H10.3966H10.9055H11.4091H11.9127H12.4216H12.9251H13.4287H13.9376H14.4412H14.9448H15.4537H15.9573H16.4609H16.885L16.9539 0.260301L17.0335 0.573726L17.1183 0.881838L17.1978 1.19526L17.2773 1.50337L17.3621 1.8168L17.4416 2.12491L17.5211 2.43833L17.606 2.74645L17.6855 3.05987L17.765 3.36798L17.8498 3.68141L17.9293 3.98952L18.0088 4.30294L18.0937 4.61637L18.1732 4.92448L18.2527 5.2379L18.3375 5.54602L18.417 5.85944L18.4965 6.16755L18.5761 6.48098L18.6609 6.78909L18.7404 7.10251L18.8199 7.41062L18.9047 7.72405L18.9842 8.03747L19.0638 8.34558L19.1486 8.65901L19.2281 8.96712L19.3076 9.28054L19.3924 9.58866L19.4719 9.90208L19.5514 10.2102L19.6363 10.5236L19.7158 10.8317L19.7953 11.1452L19.8801 11.4533L19.9596 11.7667L20.0391 12.0801L20.1187 12.3882L20.2035 12.7016L20.283 13.0098L20.3625 13.3232L20.4473 13.6313L20.5268 13.9447L20.6064 14.2528L20.6912 14.5663L20.7707 14.8744L20.8502 15.1878L20.935 15.4959L21.0145 15.8093L21.094 16.1228L21.1789 16.4309L21.2584 16.7443L21.3379 17.0524L21.4174 17.3658L21.5022 17.6739L21.5817 17.9874L21.6613 18.2955L21.7461 18.6089L21.8256 18.917L21.9051 19.2304L21.9899 19.5385L22.0694 19.852L22.149 20.1654L22.2338 20.4735L22.3133 20.7869L22.3928 21.095L22.4776 21.4085L22.5571 21.7166L22.6367 22.03L22.7215 22.3381L22.7586 22.4975C22.573 22.4284 22.3769 22.3647 22.1702 22.3169C21.9263 22.2531 21.6666 22.2106 21.4015 22.1787C21.2107 22.1575 21.0145 22.1416 20.8131 22.1309C20.6488 22.1256 20.4791 22.1256 20.3042 22.1309C20.1558 22.1363 20.0073 22.1469 19.8536 22.1575C19.7158 22.1734 19.5727 22.1894 19.4348 22.2053C19.3076 22.2212 19.1751 22.2425 19.0478 22.2691C18.9259 22.2903 18.804 22.3169 18.6821 22.3434C18.5867 22.3647 18.4965 22.3859 18.4011 22.4125L18.3375 22.4284C18.2262 22.455 18.1149 22.4869 18.0088 22.5187C17.9028 22.5559 17.7968 22.5878 17.6961 22.625C17.5954 22.6569 17.4946 22.694 17.3992 22.7312C17.2985 22.7684 17.2031 22.8109 17.113 22.8481C17.0176 22.8906 16.9274 22.9331 16.8373 22.9756C16.7525 23.0128 16.6624 23.0553 16.5776 23.1031C16.4927 23.1456 16.4079 23.1934 16.3284 23.2359C16.2436 23.2837 16.1641 23.3315 16.0899 23.3793C16.0104 23.4271 15.9361 23.4749 15.8566 23.5281C15.7824 23.5759 15.7135 23.6237 15.6393 23.6768C15.5704 23.7299 15.5015 23.7831 15.4325 23.8362C15.3636 23.8893 15.3 23.9424 15.2311 23.9955C15.1675 24.054 15.1039 24.1071 15.0456 24.1655C14.982 24.224 14.9236 24.2824 14.8653 24.3408C14.807 24.3993 14.754 24.4577 14.701 24.5161C14.648 24.5799 14.595 24.6436 14.542 24.7021C14.4943 24.7658 14.4465 24.8296 14.3988 24.8933C14.3511 24.9624 14.3087 25.0261 14.2663 25.0899C14.2239 25.1589 14.1815 25.228 14.1444 25.2971C14.1073 25.3661 14.0702 25.4352 14.0384 25.5095C14.0066 25.5786 13.9748 25.653 13.9482 25.7273C13.9217 25.8017 13.8952 25.8814 13.874 25.9558C13.8528 26.0355 13.8369 26.1151 13.821 26.1948C13.8051 26.2798 13.7945 26.3648 13.7892 26.4498C13.7839 26.5348 13.7839 26.6251 13.7839 26.7154C13.7892 26.8111 13.7998 26.9067 13.821 26.997C13.8263 27.0501 13.8422 27.1032 13.8528 27.1564C13.8687 27.2095 13.8793 27.2573 13.9005 27.3104C13.9376 27.4273 13.9907 27.5441 14.049 27.6557C14.1338 27.8098 14.2345 27.9479 14.3511 28.0807V28.086C14.8335 28.6385 15.5969 29.0369 16.5246 29.2388C16.7525 29.2866 16.9963 29.3238 17.2402 29.3503C17.4257 29.3663 17.6166 29.3769 17.8127 29.3822C17.9717 29.3875 18.1414 29.3875 18.3057 29.3769C18.4541 29.3716 18.6026 29.3609 18.751 29.345C18.8888 29.3344 19.0266 29.3184 19.1645 29.2972C19.2917 29.2813 19.4189 29.2547 19.5461 29.2334C19.6681 29.2122 19.79 29.1856 19.9119 29.1538C19.9808 29.1378 20.055 29.1219 20.124 29.106L20.2512 29.0688C20.3625 29.0369 20.4685 29.005 20.5745 28.9731C20.6806 28.9413 20.7866 28.9041 20.8873 28.8722C20.988 28.835 21.0834 28.7978 21.1842 28.7607C21.2796 28.7235 21.375 28.681 21.4651 28.6385C21.5552 28.6013 21.6454 28.5588 21.7355 28.5163C21.8256 28.4738 21.9104 28.4313 21.9952 28.3835C22.08 28.341 22.1649 28.2985 22.2444 28.2507C22.3239 28.2029 22.4034 28.1551 22.4829 28.1072C22.5571 28.0594 22.6313 28.0116 22.7056 27.9585C22.7798 27.9107 22.854 27.8576 22.9229 27.8044C22.9971 27.7566 23.066 27.7035 23.1296 27.6504C23.1986 27.5973 23.2622 27.5388 23.3258 27.4857C23.3894 27.4273 23.453 27.3742 23.5113 27.3157C23.5749 27.2573 23.6332 27.1988 23.6916 27.1404C23.7446 27.082 23.8029 27.0235 23.8559 26.9598C23.9089 26.9014 23.9619 26.8376 24.0096 26.7739C24.0573 26.7101 24.105 26.6464 24.1527 26.5826C24.2005 26.5189 24.2429 26.4498 24.2853 26.3861C24.3224 26.317 24.3648 26.248 24.4019 26.1789C24.439 26.1098 24.4708 26.0355 24.5026 25.9664C24.5344 25.892 24.5662 25.8177 24.5927 25.7433C24.6192 25.6689 24.6404 25.5892 24.6616 25.5149C24.6828 25.4299 24.6988 25.3502 24.7094 25.2705C24.7253 25.1855 24.7359 25.1005 24.7359 25.0155C24.7412 24.9252 24.7412 24.8349 24.7359 24.7499C24.7306 24.649 24.7147 24.5533 24.6935 24.4577C24.6882 24.4258 24.6828 24.3887 24.6722 24.3568L24.6139 24.1496L24.5344 23.8362L24.4496 23.5228L24.3648 23.2093L24.28 22.9012L24.1952 22.5878L24.1156 22.2744L24.0308 21.9609L23.946 21.6528L23.8612 21.3394L23.7817 21.026L23.6969 20.7126L23.612 20.4044L23.5325 20.091L23.4477 19.7776L23.3629 19.4642L23.2834 19.1561L23.1986 18.8426L23.119 18.5292L23.0342 18.2211L22.9494 17.9077L22.8699 17.5943L22.7851 17.2861L22.7056 16.9727L22.6207 16.6593L22.5412 16.3512L22.4564 16.0378L22.3769 15.7243L22.2921 15.4162L22.2126 15.1028L22.1278 14.7947L22.0482 14.4813L21.9634 14.1678L21.8839 13.8597L21.7991 13.5463L21.7196 13.2382L21.6401 12.9248L21.5552 12.6113L21.4757 12.3032L21.3962 11.9898L21.3114 11.6817L21.2319 11.3683L21.1524 11.0602L21.0675 10.7467L20.988 10.4386L20.9085 10.1252L20.829 9.81708L20.7495 9.50366L20.67 9.20617L20.6647 9.19555C20.6382 9.0893 20.617 8.98837 20.5958 8.88744C20.5745 8.7865 20.5533 8.68557 20.5374 8.58995C20.5162 8.48902 20.5003 8.39339 20.4897 8.29777C20.4738 8.20215 20.4632 8.10653 20.4526 8.01091C20.4473 7.91529 20.442 7.82498 20.4367 7.73467C20.4314 7.63905 20.4261 7.54874 20.4261 7.45843C20.4261 7.36813 20.4261 7.27782 20.4261 7.19282C20.4314 7.10251 20.4367 7.01752 20.442 6.93252C20.4473 6.84752 20.4579 6.76253 20.4685 6.67753C20.4791 6.59253 20.4897 6.51285 20.5056 6.42785C20.5215 6.34817 20.5321 6.26848 20.5533 6.1888C20.5692 6.10912 20.5905 6.02943 20.6117 5.94975C20.6329 5.87538 20.6594 5.79569 20.6806 5.72132C20.7071 5.64695 20.7336 5.56726 20.7654 5.4982C20.7919 5.42383 20.8237 5.34946 20.8555 5.27509C20.8926 5.20603 20.9244 5.13697 20.9615 5.0626C20.9986 4.99354 21.0357 4.92448 21.0781 4.86073C21.1206 4.79167 21.163 4.72261 21.2054 4.65887C21.2531 4.59512 21.3008 4.52606 21.3485 4.46762C21.3962 4.40388 21.4492 4.34013 21.5022 4.27638C21.5552 4.21795 21.6136 4.15951 21.6666 4.10108C21.7302 4.04264 21.7885 3.98421 21.8521 3.92577C21.9104 3.87265 21.9793 3.81421 22.0482 3.76109C22.1171 3.70797 22.1861 3.65485 22.255 3.60703C22.3292 3.55391 22.4087 3.5061 22.4882 3.4636C22.5677 3.41579 22.6526 3.36798 22.7374 3.32548C24.2217 2.57114 26.2679 2.62426 28.3883 3.75047C30.3391 4.64293 31.6166 6.36411 32.1361 8.3084C32.1679 8.41464 32.1891 8.51558 32.2156 8.61651C32.2368 8.71744 32.258 8.81838 32.2739 8.91931C32.2898 9.01493 32.3057 9.11586 32.3216 9.21148C32.3375 9.30711 32.3482 9.40273 32.3588 9.49835V9.5196C32.3694 9.60459 32.3747 9.6949 32.38 9.7799C32.3906 9.87021 32.3906 9.96052 32.3959 10.0508C32.3959 10.1411 32.3959 10.2314 32.3906 10.3218C32.3906 10.4067 32.3853 10.4971 32.38 10.5821C32.3747 10.667 32.3641 10.752 32.3535 10.837C32.3428 10.922 32.3322 11.0017 32.3163 11.0867C32.3057 11.1664 32.2898 11.2461 32.2686 11.3258C32.2527 11.4055 32.2315 11.4851 32.2103 11.5648C32.1891 11.6392 32.1626 11.7189 32.1414 11.7933C32.1149 11.8676 32.0884 11.9473 32.0566 12.0164C32.0301 12.0907 31.9983 12.1651 31.9665 12.2395C31.9347 12.3085 31.9029 12.3829 31.8658 12.452C31.8286 12.521 31.7915 12.5901 31.7544 12.6592C31.712 12.7282 31.6749 12.7973 31.6325 12.8663C31.5901 12.9301 31.5477 12.9991 31.5 13.0629C31.4523 13.1266 31.4099 13.1904 31.3569 13.2541C31.3091 13.3179 31.2614 13.3816 31.2084 13.4454C31.1554 13.5038 31.1024 13.5676 31.0494 13.626C30.9964 13.6897 30.9381 13.7482 30.8798 13.8066C30.8215 13.865 30.7631 13.9235 30.7048 13.9819C30.6465 14.0403 30.5829 14.0935 30.5193 14.1519C30.4557 14.205 30.3921 14.2581 30.3232 14.3166C30.2595 14.3697 30.1906 14.4228 30.1217 14.4759C30.0528 14.5291 29.9839 14.5822 29.915 14.6353C29.8408 14.6831 29.7718 14.7363 29.6976 14.7841C29.6234 14.8372 29.5492 14.885 29.4697 14.9328C29.3955 14.9806 29.316 15.0337 29.2364 15.0762C29.1622 15.124 29.0827 15.1719 28.9979 15.2197C28.9184 15.2675 28.8389 15.31 28.754 15.3578C28.6692 15.4003 28.5844 15.4481 28.4996 15.4906C28.4148 15.5331 28.3247 15.5756 28.2398 15.6181C28.1497 15.6606 28.0596 15.7031 27.9695 15.7456C27.8794 15.7881 27.7893 15.8306 27.6991 15.8678C27.6037 15.9103 27.5136 15.9474 27.4182 15.9899C27.3546 16.0165 27.2963 16.0378 27.2326 16.0643C27.3546 16.0696 27.4765 16.0803 27.6037 16.0856C27.8052 16.1015 28.0119 16.1174 28.2133 16.144C28.4466 16.1706 28.6798 16.2024 28.9078 16.2396C29.1887 16.2927 29.4644 16.3459 29.7347 16.4149C30.1429 16.5159 30.5352 16.6327 30.9169 16.7709C31.8764 17.1215 32.7563 17.5889 33.5356 18.1627C33.843 18.3911 34.1399 18.6355 34.4156 18.8958C34.6011 19.0711 34.7813 19.257 34.9563 19.4482C35.0941 19.6023 35.2266 19.767 35.3538 19.9317C35.4652 20.0698 35.5712 20.2185 35.6719 20.3673C35.762 20.5001 35.8521 20.6329 35.9317 20.771C36.0112 20.8985 36.0801 21.026 36.1543 21.1535C36.2179 21.2757 36.2762 21.3978 36.3398 21.52C36.3928 21.6369 36.4459 21.7538 36.4989 21.8759C36.5466 21.9875 36.589 22.0991 36.6314 22.2159C36.6738 22.3222 36.7109 22.4337 36.748 22.5453C36.7851 22.6515 36.8169 22.7578 36.8487 22.864C36.8805 22.9703 36.907 23.0712 36.9335 23.1775C36.9601 23.2784 36.9866 23.3793 37.0078 23.4856C37.029 23.5812 37.0502 23.6821 37.0661 23.7831C37.0873 23.8787 37.1032 23.9796 37.1138 24.0752C37.1297 24.1709 37.1456 24.2718 37.1562 24.3674C37.1668 24.4577 37.1774 24.5533 37.1827 24.649C37.1933 24.7393 37.1986 24.8349 37.2039 24.9305C37.2092 25.0208 37.2145 25.1111 37.2198 25.2014C37.2198 25.2917 37.2251 25.3821 37.2251 25.4724C37.2251 25.5627 37.2251 25.653 37.2251 25.7433C37.2198 25.8283 37.2198 25.9186 37.2145 26.0036C37.2092 26.0939 37.2092 26.1789 37.1986 26.2639C37.1933 26.3489 37.188 26.4392 37.1827 26.5242C37.1721 26.6092 37.1615 26.6942 37.1562 26.7792C37.1456 26.8589 37.135 26.9439 37.1244 27.0289C37.1191 27.066 37.1138 27.1085 37.1085 27.1457C37.1032 27.1935 37.0926 27.236 37.0873 27.2785C37.0714 27.3582 37.0608 27.4432 37.0449 27.5229C37.029 27.6026 37.0131 27.6823 36.9919 27.7619C36.976 27.8416 36.9548 27.9213 36.9389 28.001C36.9176 28.0807 36.8964 28.1604 36.8752 28.2347C36.854 28.3144 36.8275 28.3888 36.8063 28.4685C36.7798 28.5429 36.7533 28.6225 36.7268 28.6969C36.7056 28.7713 36.6738 28.8457 36.6473 28.92C36.6208 28.9944 36.589 29.0688 36.5572 29.1431C36.5254 29.2122 36.4989 29.2866 36.4618 29.3609C36.43 29.43 36.3981 29.5044 36.3663 29.5734C36.3292 29.6425 36.2974 29.7169 36.2603 29.7859C36.2232 29.855 36.1861 29.924 36.1437 29.9931C36.1066 30.0622 36.0695 30.1312 36.0271 30.2003C35.99 30.2693 35.9476 30.3331 35.9051 30.4022C35.8627 30.4712 35.8203 30.535 35.7779 30.604C35.7302 30.6678 35.6878 30.7315 35.6401 30.7953C35.5977 30.8643 35.55 30.9281 35.5023 30.9918C35.4546 31.0556 35.4068 31.1193 35.3538 31.1831C35.3061 31.2468 35.2531 31.3052 35.2054 31.369C35.1524 31.4327 35.0994 31.4965 35.0464 31.5549C34.9934 31.6187 34.9404 31.6771 34.8873 31.7355C34.829 31.7993 34.776 31.8577 34.7177 31.9161C34.6594 31.9746 34.6064 32.033 34.5481 32.0915C34.4898 32.1499 34.4262 32.2083 34.3678 32.2668C34.3095 32.3252 34.2459 32.3783 34.1876 32.4368C34.124 32.4952 34.0604 32.5483 33.9968 32.6067C33.9332 32.6599 33.8695 32.7183 33.8059 32.7714C33.737 32.8245 33.6734 32.8777 33.6045 32.9361C33.5409 32.9892 33.472 33.0424 33.4031 33.0955C33.3341 33.1486 33.2652 33.2017 33.1963 33.2495C33.1221 33.3027 33.0532 33.3558 32.979 33.4036C32.9101 33.4567 32.8358 33.5098 32.7616 33.5576C32.6874 33.6055 32.6132 33.6586 32.539 33.7064C32.4595 33.7542 32.3853 33.8073 32.3057 33.8551C32.2315 33.9029 32.152 33.9508 32.0725 33.9986C31.993 34.0464 31.9135 34.0942 31.834 34.1367C31.7544 34.1845 31.6696 34.2323 31.5901 34.2748C31.5053 34.3226 31.4258 34.3651 31.341 34.4129C31.2561 34.4554 31.1713 34.5032 31.0865 34.5457C31.0017 34.5882 30.9116 34.6307 30.8268 34.6732C30.7366 34.721 30.6518 34.7635 30.5617 34.8007C30.4716 34.8432 30.3815 34.8857 30.2913 34.9282C30.2012 34.9707 30.1058 35.0079 30.0157 35.0504C29.9203 35.0876 29.8302 35.1301 29.7347 35.1673C29.6393 35.2098 29.5439 35.2469 29.4485 35.2841C29.3531 35.3213 29.2523 35.3585 29.1569 35.3957C29.0562 35.4329 28.9555 35.4701 28.8601 35.5072C28.7593 35.5444 28.6586 35.5816 28.5526 35.6135C28.4519 35.6507 28.3512 35.6826 28.2451 35.7197C28.1444 35.7516 28.0384 35.7888 27.9324 35.8207C27.8264 35.8525 27.7203 35.8844 27.609 35.9163C27.503 35.9482 27.3917 35.98 27.2857 36.0119C27.1743 36.0438 27.063 36.0757 26.9517 36.1022C26.8404 36.1341 26.7237 36.166 26.6124 36.1925C26.4958 36.2191 26.3792 36.251 26.2679 36.2775C26.1512 36.3041 26.0293 36.3307 25.9127 36.3572C25.7961 36.3838 25.6741 36.4103 25.5522 36.4369C25.4303 36.4581 25.3084 36.4847 25.1864 36.506C25.0645 36.5325 24.9373 36.5538 24.8101 36.575C24.6828 36.6016 24.5556 36.6228 24.4284 36.6441C24.3012 36.6653 24.1686 36.6866 24.0414 36.7025C23.9036 36.7238 23.7711 36.7397 23.6385 36.7609C23.506 36.7769 23.3682 36.7928 23.2304 36.8088C23.0925 36.83 22.9547 36.8406 22.8116 36.8566C22.6685 36.8725 22.5253 36.8831 22.3822 36.8991C22.2391 36.9097 22.0906 36.9203 21.9422 36.9309C21.7938 36.9416 21.6401 36.9522 21.4916 36.9628Z" fill="url(#paint0_linear_801_5359)"/>
</g>
<defs>
<linearGradient id="paint0_linear_801_5359" x1="5.55957" y1="31.6876" x2="31.7214" y2="5.36735" gradientUnits="userSpaceOnUse">
<stop stop-color="#FF1900"/>
<stop offset="1" stop-color="#FFB226"/>
</linearGradient>
<clipPath id="clip0_801_5359">
<rect width="133" height="37" fill="white"/>
</clipPath>
</defs>
</svg>
