<svg width="28" height="28" viewBox="0 0 28 28" fill="none" xmlns="http://www.w3.org/2000/svg">
<rect width="28" height="28" rx="14" fill="white"/>
<path d="M19.3395 7.31356C19.738 6.91505 20.3626 6.89352 20.7345 7.26545C21.1065 7.63739 21.0849 8.26196 20.6864 8.66047L8.66047 20.6864C8.26196 21.0849 7.63739 21.1065 7.26545 20.7345C6.89352 20.3626 6.91505 19.738 7.31356 19.3395L19.3395 7.31356Z" fill="#0085FF"/>
<path d="M7.66632 9.10944C7.29438 8.7375 7.31592 8.11293 7.71442 7.71442C8.11293 7.31592 8.7375 7.29438 9.10944 7.66632L20.3337 18.8906C20.7056 19.2625 20.6841 19.8871 20.2856 20.2856C19.8871 20.6841 19.2625 20.7056 18.8906 20.3337L7.66632 9.10944Z" fill="#0085FF"/>
</svg>
