<svg width="239" height="135" viewBox="0 0 239 135" fill="none" xmlns="http://www.w3.org/2000/svg">
<path d="M206.405 130.637C206.405 132.846 193.198 134.637 176.905 134.637C160.613 134.637 147.405 134.637 147.405 130.637C147.405 125.387 160.613 126.637 176.905 126.637C193.198 126.637 206.405 128.428 206.405 130.637Z" fill="url(#paint0_linear_1372_14006)" fill-opacity="0.18"/>
<path d="M122.824 25.556C124.838 17.0155 133.354 11.6899 141.914 13.6186L223.003 31.8882C231.85 33.8815 237.273 42.822 234.954 51.5892L218.739 112.877C216.479 121.419 207.722 126.512 199.179 124.252L120.459 103.426C112.08 101.209 106.99 92.7232 108.979 84.2869L122.824 25.556Z" fill="#B9BDC0"/>
<path d="M128.811 65.3997C128.804 65.4322 128.784 65.4449 128.751 65.4378C128.751 65.4378 128.748 65.4541 128.741 65.4867C128.733 65.5193 128.746 65.5391 128.779 65.5462L138.109 67.5831C138.37 67.6399 138.532 67.5218 138.596 67.2287L141.55 53.6974C141.557 53.6649 141.544 53.645 141.512 53.6379L141.463 53.6272L128.811 65.3997ZM123.893 70.1092C123.177 69.9528 122.598 69.5536 122.159 68.9117C121.751 68.2769 121.629 67.5849 121.793 66.8359C122.191 65.0122 123.068 63.4976 124.423 62.2922L141.458 46.6149C142.827 45.3444 144.44 44.9117 146.296 45.317L147.371 45.5516C148.12 45.7151 148.711 46.1341 149.144 46.8086C149.577 47.4831 149.711 48.1948 149.548 48.9439L145.239 68.6791C145.175 68.9722 145.274 69.1472 145.534 69.204L147.879 69.7159C148.628 69.8794 149.206 70.2786 149.613 70.9134C150.021 71.5482 150.143 72.2401 149.979 72.9892C149.816 73.7382 149.416 74.3164 148.782 74.7237C148.147 75.131 147.455 75.2529 146.706 75.0894L144.361 74.5775C144.101 74.5206 143.938 74.6387 143.874 74.9318L142.978 79.0352C142.815 79.7842 142.396 80.3751 141.721 80.8079C141.047 81.2406 140.335 81.3752 139.586 81.2117L138.512 80.9771C137.762 80.8136 137.172 80.3946 136.739 79.7201C136.306 79.0456 136.171 78.3339 136.335 77.5848L137.231 73.4815C137.295 73.1884 137.196 73.0134 136.936 72.9565L123.893 70.1092Z" fill="white"/>
<path d="M177.02 60.1613C176.339 57.9656 174.859 56.619 172.579 56.1213C170.3 55.6236 168.393 56.2309 166.859 57.9432C165.325 59.6554 164.039 62.8889 163.001 67.6436C161.963 72.3983 161.785 75.8735 162.465 78.0692C163.146 80.2649 164.626 81.6116 166.906 82.1092C169.185 82.6069 171.092 81.9996 172.626 80.2873C174.16 78.5751 175.446 75.3416 176.484 70.5869C177.522 65.8322 177.7 62.357 177.02 60.1613ZM176.951 85.3257C174.071 87.7336 170.335 88.4363 165.743 87.4338C161.152 86.4314 158.032 84.2321 156.385 80.8361C154.771 77.4471 154.664 72.5448 156.065 66.1293C157.465 59.7137 159.605 55.302 162.485 52.8942C165.398 50.4934 169.15 49.7943 173.742 50.7967C178.333 51.7991 181.437 53.9948 183.051 57.3838C184.698 60.7799 184.821 65.6857 183.42 72.1012C182.02 78.5168 179.863 82.925 176.951 85.3257Z" fill="white"/>
<path d="M191.304 79.0424C191.297 79.0749 191.277 79.0877 191.244 79.0805C191.244 79.0805 191.241 79.0968 191.234 79.1294C191.226 79.162 191.239 79.1818 191.272 79.1889L200.602 81.2258C200.863 81.2827 201.025 81.1645 201.089 80.8714L204.043 67.3401C204.05 67.3076 204.037 67.2877 204.005 67.2806L203.956 67.27L191.304 79.0424ZM186.386 83.7519C185.67 83.5955 185.091 83.1963 184.652 82.5544C184.244 81.9196 184.122 81.2276 184.286 80.4786C184.684 78.6549 185.561 77.1403 186.916 75.9349L203.951 60.2576C205.32 58.9871 206.933 58.5544 208.789 58.9597L209.864 59.1943C210.613 59.3578 211.204 59.7768 211.637 60.4513C212.07 61.1258 212.204 61.8376 212.041 62.5866L207.732 82.3218C207.668 82.6149 207.767 82.7899 208.027 82.8467L210.372 83.3586C211.121 83.5221 211.699 83.9213 212.106 84.5561C212.514 85.1909 212.636 85.8829 212.472 86.6319C212.309 87.3809 211.909 87.9591 211.275 88.3664C210.64 88.7737 209.948 88.8956 209.199 88.7321L206.854 88.2202C206.594 88.1633 206.431 88.2814 206.367 88.5745L205.472 92.6779C205.308 93.4269 204.889 94.0178 204.214 94.4506C203.54 94.8833 202.828 95.018 202.079 94.8544L201.005 94.6198C200.256 94.4563 199.665 94.0373 199.232 93.3628C198.799 92.6883 198.664 91.9766 198.828 91.2275L199.724 87.1242C199.788 86.8311 199.689 86.6561 199.429 86.5992L186.386 83.7519Z" fill="white"/>
<path d="M150.921 115.876C151.333 113.587 153.604 112.131 155.856 112.712L159.683 113.698C161.674 114.211 162.952 116.151 162.638 118.183L160.953 129.075C160.648 131.043 158.943 132.487 156.953 132.463L152.68 132.413C150.207 132.384 148.352 130.139 148.791 127.704L150.921 115.876Z" fill="#D9D9D9"/>
<path d="M151.685 111.637L163.241 114.363L161.905 123.137L150.163 121.897L151.685 111.637Z" fill="url(#paint1_linear_1372_14006)"/>
<path fill-rule="evenodd" clip-rule="evenodd" d="M62.1947 0H96.8462C116.647 0 127.098 5.51136 131.498 14.8807C139.748 31.4147 139.198 70.5454 107.847 66.1363H91.346C90.7959 68.3408 90.7959 72.7499 90.7959 73.8522C90.7959 77.7101 93.5461 79.9147 97.9463 81.017C105.647 82.6704 104.547 93.6931 97.3962 94.2442H95.1962C89.6959 94.2442 90.796 103.614 95.1962 103.614C104.547 104.165 108.397 113.534 106.747 122.903C113.347 122.903 114.447 134.477 106.747 133.375H79.2454C98.4963 121.801 81.4455 87.6306 83.0956 66.6874H62.1947C52.8442 66.1363 49.5441 68.892 49.5441 74.4033C49.5441 78.2613 52.2942 80.4658 56.6944 81.5681C64.3948 83.2215 63.2947 94.2442 56.1444 94.7953H50.6442C45.1439 94.7953 46.244 104.165 50.6442 104.165C69.895 101.96 73.7452 114.085 71.5451 123.454C78.1454 123.454 79.2454 135.028 71.5451 133.926H37.9936C24.793 133.926 18.1927 126.21 17.6427 108.023C16.5426 108.574 14.8926 108.574 13.7925 108.574H9.94233C4.44208 108.574 -0.508132 103.614 0.0418925 98.1022C0.0418925 92.5908 4.99212 87.6306 10.4924 88.1817H14.3425C15.4426 88.1817 16.5426 88.7329 17.6427 88.7329V70.5454C16.5426 70.5454 15.4426 71.0965 14.8926 71.0965H11.0424C5.54214 71.0965 0.591921 66.1363 1.14195 60.6249C1.14195 55.1136 6.09215 50.1534 11.5924 50.7045H15.4426C16.5426 50.7045 17.0927 50.7045 17.6427 51.2556V45.7443C17.6427 41.8863 18.1927 38.0284 18.7427 34.7215C17.6427 34.7215 16.5426 34.7215 15.4426 34.1704L12.1424 33.0681C6.64219 31.4147 3.34205 25.9034 4.99212 20.392C6.6422 14.8807 12.1424 11.5739 17.6427 13.2273L20.9428 14.3295C22.5929 14.8807 24.243 15.9829 25.343 17.0852C34.1434 7.7159 45.1439 1.65341 62.1947 0Z" fill="url(#paint2_linear_1372_14006)"/>
<path d="M54.4954 37.4779C60.267 37.4779 64.9459 32.7897 64.9459 27.0064C64.9459 21.2231 60.267 16.5348 54.4954 16.5348C48.7238 16.5348 44.0449 21.2231 44.0449 27.0064C44.0449 32.7897 48.7238 37.4779 54.4954 37.4779Z" fill="#FEFEFE"/>
<path d="M122.148 27.0067C123.97 27.0067 125.448 24.2924 125.448 20.9442C125.448 17.596 123.97 14.8817 122.148 14.8817C120.325 14.8817 118.848 17.596 118.848 20.9442C118.848 24.2924 120.325 27.0067 122.148 27.0067Z" fill="#FEFEFE"/>
<path d="M90.2147 52.5397C96.5449 49.9568 107.29 56.7259 102.468 66.67" stroke="white" stroke-width="3" stroke-linecap="round"/>
<circle cx="58" cy="25" r="4" fill="#0085FF"/>
<defs>
<linearGradient id="paint0_linear_1372_14006" x1="147.405" y1="130.572" x2="206.405" y2="130.572" gradientUnits="userSpaceOnUse">
<stop stop-color="#6E7174"/>
<stop offset="1" stop-color="#D9D9D9"/>
</linearGradient>
<linearGradient id="paint1_linear_1372_14006" x1="154.837" y1="124.282" x2="157.76" y2="112.572" gradientUnits="userSpaceOnUse">
<stop stop-color="#B4B4B4" stop-opacity="0"/>
<stop offset="1" stop-color="#B9BBBD"/>
</linearGradient>
<linearGradient id="paint2_linear_1372_14006" x1="41" y1="56.1248" x2="12.9998" y2="57.1226" gradientUnits="userSpaceOnUse">
<stop stop-color="#0085FF"/>
<stop offset="1" stop-color="#156AE1"/>
</linearGradient>
</defs>
</svg>
