<svg width="24" height="24" viewBox="0 0 24 24" fill="none" xmlns="http://www.w3.org/2000/svg">
<path d="M21 6.75H8.25C8.05109 6.75 7.86032 6.67098 7.71967 6.53033C7.57902 6.38968 7.5 6.19891 7.5 6C7.5 5.80109 7.57902 5.61032 7.71967 5.46967C7.86032 5.32902 8.05109 5.25 8.25 5.25H21C21.1989 5.25 21.3897 5.32902 21.5303 5.46967C21.671 5.61032 21.75 5.80109 21.75 6C21.75 6.19891 21.671 6.38968 21.5303 6.53033C21.3897 6.67098 21.1989 6.75 21 6.75Z" fill="#222020"/>
<path d="M5.25 6.75H3C2.80109 6.75 2.61032 6.67098 2.46967 6.53033C2.32902 6.38968 2.25 6.19891 2.25 6C2.25 5.80109 2.32902 5.61032 2.46967 5.46967C2.61032 5.32902 2.80109 5.25 3 5.25H5.25C5.44891 5.25 5.63968 5.32902 5.78033 5.46967C5.92098 5.61032 6 5.80109 6 6C6 6.19891 5.92098 6.38968 5.78033 6.53033C5.63968 6.67098 5.44891 6.75 5.25 6.75Z" fill="#222020"/>
<path d="M15.75 12.75H3C2.80109 12.75 2.61032 12.671 2.46967 12.5303C2.32902 12.3897 2.25 12.1989 2.25 12C2.25 11.8011 2.32902 11.6103 2.46967 11.4697C2.61032 11.329 2.80109 11.25 3 11.25H15.75C15.9489 11.25 16.1397 11.329 16.2803 11.4697C16.421 11.6103 16.5 11.8011 16.5 12C16.5 12.1989 16.421 12.3897 16.2803 12.5303C16.1397 12.671 15.9489 12.75 15.75 12.75Z" fill="#222020"/>
<path d="M8.25 18.75H3C2.80109 18.75 2.61032 18.671 2.46967 18.5303C2.32902 18.3897 2.25 18.1989 2.25 18C2.25 17.8011 2.32902 17.6103 2.46967 17.4697C2.61032 17.329 2.80109 17.25 3 17.25H8.25C8.44891 17.25 8.63968 17.329 8.78033 17.4697C8.92098 17.6103 9 17.8011 9 18C9 18.1989 8.92098 18.3897 8.78033 18.5303C8.63968 18.671 8.44891 18.75 8.25 18.75Z" fill="#222020"/>
<path d="M6.75 8.25C6.30499 8.25 5.86998 8.11804 5.49997 7.87081C5.12996 7.62357 4.84157 7.27217 4.67127 6.86104C4.50097 6.4499 4.45642 5.99751 4.54323 5.56105C4.63005 5.12459 4.84434 4.72368 5.15901 4.40901C5.47368 4.09434 5.87459 3.88005 6.31105 3.79323C6.74751 3.70642 7.1999 3.75097 7.61104 3.92127C8.02217 4.09157 8.37357 4.37996 8.62081 4.74997C8.86804 5.11998 9 5.55499 9 6C9 6.59674 8.76295 7.16903 8.34099 7.59099C7.91903 8.01295 7.34674 8.25 6.75 8.25ZM6.75 5.25C6.60167 5.25 6.45666 5.29399 6.33332 5.3764C6.20999 5.45881 6.11386 5.57594 6.05709 5.71299C6.00033 5.85003 5.98547 6.00083 6.01441 6.14632C6.04335 6.2918 6.11478 6.42544 6.21967 6.53033C6.32456 6.63522 6.4582 6.70665 6.60368 6.73559C6.74917 6.76453 6.89997 6.74968 7.03701 6.69291C7.17406 6.63615 7.29119 6.54002 7.3736 6.41668C7.45601 6.29334 7.5 6.14834 7.5 6C7.5 5.80109 7.42098 5.61032 7.28033 5.46967C7.13968 5.32902 6.94891 5.25 6.75 5.25Z" fill="#222020"/>
<path d="M17.25 14.25C16.805 14.25 16.37 14.118 16 13.8708C15.63 13.6236 15.3416 13.2722 15.1713 12.861C15.001 12.4499 14.9564 11.9975 15.0432 11.561C15.1301 11.1246 15.3443 10.7237 15.659 10.409C15.9737 10.0943 16.3746 9.88005 16.811 9.79323C17.2475 9.70642 17.6999 9.75097 18.111 9.92127C18.5222 10.0916 18.8736 10.38 19.1208 10.75C19.368 11.12 19.5 11.555 19.5 12C19.5 12.5967 19.2629 13.169 18.841 13.591C18.419 14.0129 17.8467 14.25 17.25 14.25ZM17.25 11.25C17.1017 11.25 16.9567 11.294 16.8333 11.3764C16.71 11.4588 16.6139 11.5759 16.5571 11.713C16.5003 11.85 16.4855 12.0008 16.5144 12.1463C16.5434 12.2918 16.6148 12.4254 16.7197 12.5303C16.8246 12.6352 16.9582 12.7067 17.1037 12.7356C17.2492 12.7645 17.4 12.7497 17.537 12.6929C17.6741 12.6361 17.7912 12.54 17.8736 12.4167C17.956 12.2933 18 12.1483 18 12C18 11.8011 17.921 11.6103 17.7803 11.4697C17.6397 11.329 17.4489 11.25 17.25 11.25Z" fill="#222020"/>
<path d="M9.75 20.25C9.30499 20.25 8.86998 20.118 8.49997 19.8708C8.12996 19.6236 7.84157 19.2722 7.67127 18.861C7.50097 18.4499 7.45642 17.9975 7.54323 17.561C7.63005 17.1246 7.84434 16.7237 8.15901 16.409C8.47368 16.0943 8.87459 15.8801 9.31105 15.7932C9.74751 15.7064 10.1999 15.751 10.611 15.9213C11.0222 16.0916 11.3736 16.38 11.6208 16.75C11.868 17.12 12 17.555 12 18C12 18.5967 11.7629 19.169 11.341 19.591C10.919 20.0129 10.3467 20.25 9.75 20.25ZM9.75 17.25C9.60167 17.25 9.45666 17.294 9.33332 17.3764C9.20999 17.4588 9.11386 17.5759 9.05709 17.713C9.00033 17.85 8.98547 18.0008 9.01441 18.1463C9.04335 18.2918 9.11478 18.4254 9.21967 18.5303C9.32456 18.6352 9.4582 18.7067 9.60368 18.7356C9.74917 18.7645 9.89997 18.7497 10.037 18.6929C10.1741 18.6361 10.2912 18.54 10.3736 18.4167C10.456 18.2933 10.5 18.1483 10.5 18C10.5 17.8011 10.421 17.6103 10.2803 17.4697C10.1397 17.329 9.94891 17.25 9.75 17.25Z" fill="#222020"/>
<path d="M21 12.75H18.75C18.5511 12.75 18.3603 12.671 18.2197 12.5303C18.079 12.3897 18 12.1989 18 12C18 11.8011 18.079 11.6103 18.2197 11.4697C18.3603 11.329 18.5511 11.25 18.75 11.25H21C21.1989 11.25 21.3897 11.329 21.5303 11.4697C21.671 11.6103 21.75 11.8011 21.75 12C21.75 12.1989 21.671 12.3897 21.5303 12.5303C21.3897 12.671 21.1989 12.75 21 12.75Z" fill="#222020"/>
<path d="M21 18.75H11.25C11.0511 18.75 10.8603 18.671 10.7197 18.5303C10.579 18.3897 10.5 18.1989 10.5 18C10.5 17.8011 10.579 17.6103 10.7197 17.4697C10.8603 17.329 11.0511 17.25 11.25 17.25H21C21.1989 17.25 21.3897 17.329 21.5303 17.4697C21.671 17.6103 21.75 17.8011 21.75 18C21.75 18.1989 21.671 18.3897 21.5303 18.5303C21.3897 18.671 21.1989 18.75 21 18.75Z" fill="#222020"/>
</svg>
