<svg width="26" height="24" viewBox="0 0 26 24" fill="none" xmlns="http://www.w3.org/2000/svg">
<path d="M22.2251 6.96875H8.73103C8.52051 6.96875 8.31861 6.89302 8.16975 6.75823C8.02089 6.62344 7.93726 6.44062 7.93726 6.25C7.93726 6.05938 8.02089 5.87656 8.16975 5.74177C8.31861 5.60698 8.52051 5.53125 8.73103 5.53125H22.2251C22.4357 5.53125 22.6376 5.60698 22.7864 5.74177C22.9353 5.87656 23.0189 6.05938 23.0189 6.25C23.0189 6.44062 22.9353 6.62344 22.7864 6.75823C22.6376 6.89302 22.4357 6.96875 22.2251 6.96875Z" fill="#222020"/>
<path d="M5.55594 6.96875H3.17463C2.96411 6.96875 2.76221 6.89302 2.61335 6.75823C2.46449 6.62344 2.38086 6.44062 2.38086 6.25C2.38086 6.05938 2.46449 5.87656 2.61335 5.74177C2.76221 5.60698 2.96411 5.53125 3.17463 5.53125H5.55594C5.76646 5.53125 5.96836 5.60698 6.11722 5.74177C6.26609 5.87656 6.34971 6.05938 6.34971 6.25C6.34971 6.44062 6.26609 6.62344 6.11722 6.75823C5.96836 6.89302 5.76646 6.96875 5.55594 6.96875Z" fill="#222020"/>
<path d="M16.6687 12.7188H3.17463C2.96411 12.7188 2.76221 12.643 2.61335 12.5082C2.46449 12.3734 2.38086 12.1906 2.38086 12C2.38086 11.8094 2.46449 11.6266 2.61335 11.4918C2.76221 11.357 2.96411 11.2812 3.17463 11.2812H16.6687C16.8793 11.2812 17.0812 11.357 17.23 11.4918C17.3789 11.6266 17.4625 11.8094 17.4625 12C17.4625 12.1906 17.3789 12.3734 17.23 12.5082C17.0812 12.643 16.8793 12.7188 16.6687 12.7188Z" fill="#222020"/>
<path d="M8.73103 18.4688H3.17463C2.96411 18.4688 2.76221 18.393 2.61335 18.2582C2.46449 18.1234 2.38086 17.9406 2.38086 17.75C2.38086 17.5594 2.46449 17.3766 2.61335 17.2418C2.76221 17.107 2.96411 17.0312 3.17463 17.0312H8.73103C8.94155 17.0312 9.14345 17.107 9.29231 17.2418C9.44117 17.3766 9.5248 17.5594 9.5248 17.75C9.5248 17.9406 9.44117 18.1234 9.29231 18.2582C9.14345 18.393 8.94155 18.4688 8.73103 18.4688Z" fill="#222020"/>
<path d="M7.14303 8.40625C6.67205 8.40625 6.21165 8.27979 5.82005 8.04286C5.42844 7.80593 5.12322 7.46917 4.94299 7.07516C4.76275 6.68116 4.71559 6.24761 4.80748 5.82934C4.89936 5.41107 5.12616 5.02686 5.45919 4.7253C5.79222 4.42374 6.21653 4.21838 6.67846 4.13518C7.14039 4.05198 7.61919 4.09468 8.05432 4.25789C8.48945 4.42109 8.86136 4.69746 9.12302 5.05205C9.38468 5.40665 9.52435 5.82353 9.52435 6.25C9.52435 6.82187 9.27346 7.37032 8.82688 7.7747C8.38029 8.17908 7.7746 8.40625 7.14303 8.40625ZM7.14303 5.53125C6.98604 5.53125 6.83257 5.57341 6.70204 5.65238C6.5715 5.73136 6.46976 5.84361 6.40968 5.97495C6.34961 6.10628 6.33389 6.2508 6.36451 6.39022C6.39514 6.52965 6.47074 6.65771 6.58175 6.75823C6.69276 6.85875 6.8342 6.92721 6.98818 6.95494C7.14215 6.98267 7.30175 6.96844 7.4468 6.91404C7.59184 6.85964 7.71581 6.76752 7.80303 6.64932C7.89025 6.53112 7.9368 6.39216 7.9368 6.25C7.9368 6.05938 7.85317 5.87656 7.70431 5.74177C7.55545 5.60698 7.35355 5.53125 7.14303 5.53125Z" fill="#222020"/>
<path d="M18.2563 14.1563C17.7853 14.1563 17.3249 14.0298 16.9333 13.7929C16.5417 13.5559 16.2365 13.2192 16.0563 12.8252C15.876 12.4312 15.8289 11.9976 15.9208 11.5793C16.0126 11.1611 16.2394 10.7769 16.5725 10.4753C16.9055 10.1737 17.3298 9.96838 17.7917 9.88518C18.2537 9.80198 18.7325 9.84468 19.1676 10.0079C19.6027 10.1711 19.9746 10.4475 20.2363 10.8021C20.498 11.1566 20.6376 11.5735 20.6376 12C20.6376 12.5719 20.3867 13.1203 19.9402 13.5247C19.4936 13.9291 18.8879 14.1563 18.2563 14.1563ZM18.2563 11.2813C18.0993 11.2813 17.9459 11.3234 17.8153 11.4024C17.6848 11.4814 17.583 11.5936 17.523 11.7249C17.4629 11.8563 17.4472 12.0008 17.4778 12.1402C17.5084 12.2796 17.584 12.4077 17.695 12.5082C17.806 12.6088 17.9475 12.6772 18.1015 12.7049C18.2554 12.7327 18.415 12.7184 18.5601 12.664C18.7051 12.6096 18.8291 12.5175 18.9163 12.3993C19.0035 12.2811 19.0501 12.1422 19.0501 12C19.0501 11.8094 18.9665 11.6266 18.8176 11.4918C18.6687 11.357 18.4668 11.2813 18.2563 11.2813Z" fill="#222020"/>
<path d="M10.3188 19.9063C9.84784 19.9063 9.38743 19.7798 8.99583 19.5429C8.60422 19.3059 8.299 18.9692 8.11877 18.5752C7.93853 18.1812 7.89137 17.7476 7.98326 17.3293C8.07514 16.9111 8.30194 16.5269 8.63497 16.2253C8.968 15.9237 9.39231 15.7184 9.85424 15.6352C10.3162 15.552 10.795 15.5947 11.2301 15.7579C11.6652 15.9211 12.0371 16.1975 12.2988 16.5521C12.5605 16.9066 12.7001 17.3235 12.7001 17.75C12.7001 18.3219 12.4492 18.8703 12.0027 19.2747C11.5561 19.6791 10.9504 19.9063 10.3188 19.9063ZM10.3188 17.0313C10.1618 17.0313 10.0084 17.0734 9.87782 17.1524C9.74728 17.2314 9.64554 17.3436 9.58547 17.4749C9.52539 17.6063 9.50967 17.7508 9.5403 17.8902C9.57092 18.0296 9.64652 18.1577 9.75753 18.2582C9.86854 18.3588 10.01 18.4272 10.164 18.4549C10.3179 18.4827 10.4775 18.4684 10.6226 18.414C10.7676 18.3596 10.8916 18.2675 10.9788 18.1493C11.066 18.0311 11.1126 17.8922 11.1126 17.75C11.1126 17.5594 11.029 17.3766 10.8801 17.2418C10.7312 17.107 10.5293 17.0313 10.3188 17.0313Z" fill="#222020"/>
<path d="M22.2249 12.7188H19.8436C19.6331 12.7188 19.4312 12.643 19.2823 12.5082C19.1334 12.3734 19.0498 12.1906 19.0498 12C19.0498 11.8094 19.1334 11.6266 19.2823 11.4918C19.4312 11.357 19.6331 11.2812 19.8436 11.2812H22.2249C22.4354 11.2812 22.6373 11.357 22.7862 11.4918C22.935 11.6266 23.0187 11.8094 23.0187 12C23.0187 12.1906 22.935 12.3734 22.7862 12.5082C22.6373 12.643 22.4354 12.7188 22.2249 12.7188Z" fill="#222020"/>
<path d="M22.2251 18.4688H11.9061C11.6956 18.4688 11.4937 18.393 11.3448 18.2582C11.1959 18.1234 11.1123 17.9406 11.1123 17.75C11.1123 17.5594 11.1959 17.3766 11.3448 17.2418C11.4937 17.107 11.6956 17.0312 11.9061 17.0312H22.2251C22.4356 17.0312 22.6375 17.107 22.7864 17.2418C22.9352 17.3766 23.0189 17.5594 23.0189 17.75C23.0189 17.9406 22.9352 18.1234 22.7864 18.2582C22.6375 18.393 22.4356 18.4688 22.2251 18.4688Z" fill="#222020"/>
</svg>
