<svg width="262" height="40" viewBox="0 0 262 40" fill="none" xmlns="http://www.w3.org/2000/svg">
<path d="M0.160511 39V2.63636H7.84872V18.6697H8.32812L21.4141 2.63636H30.6293L17.1349 18.9183L30.7891 39H21.5916L11.6307 24.0497L7.84872 28.6662V39H0.160511ZM36.2001 39V11.7273H43.764V39H36.2001ZM39.9998 8.21165C38.8753 8.21165 37.9106 7.83878 37.1056 7.09304C36.3126 6.33546 35.916 5.42992 35.916 4.37642C35.916 3.33475 36.3126 2.44105 37.1056 1.69531C37.9106 0.937735 38.8753 0.558947 39.9998 0.558947C41.1243 0.558947 42.0832 0.937735 42.8762 1.69531C43.6812 2.44105 44.0836 3.33475 44.0836 4.37642C44.0836 5.42992 43.6812 6.33546 42.8762 7.09304C42.0832 7.83878 41.1243 8.21165 39.9998 8.21165ZM59.8729 39.4439C57.8014 39.4439 55.9252 38.9112 54.2443 37.8459C52.5753 36.7687 51.2495 35.1884 50.267 33.1051C49.2964 31.0099 48.8111 28.4413 48.8111 25.3991C48.8111 22.2741 49.3142 19.6759 50.3203 17.6044C51.3265 15.5211 52.6641 13.9645 54.3331 12.9347C56.014 11.893 57.8546 11.3722 59.8551 11.3722C61.3821 11.3722 62.6546 11.6326 63.6726 12.1534C64.7024 12.6624 65.531 13.3016 66.1584 14.071C66.7976 14.8286 67.2829 15.5743 67.6143 16.3082H67.8452V2.63636H75.3913V39H67.9339V34.6321H67.6143C67.2592 35.3897 66.7562 36.1413 66.1051 36.8871C65.4659 37.621 64.6314 38.2306 63.6016 38.7159C62.5836 39.2012 61.3407 39.4439 59.8729 39.4439ZM62.2699 33.4247C63.4891 33.4247 64.5189 33.0933 65.3594 32.4304C66.2116 31.7557 66.8627 30.8146 67.3125 29.6072C67.7741 28.3999 68.005 26.9853 68.005 25.3636C68.005 23.742 67.7801 22.3333 67.3303 21.1378C66.8804 19.9422 66.2294 19.0189 65.3771 18.3679C64.5249 17.7169 63.4891 17.3913 62.2699 17.3913C61.027 17.3913 59.9794 17.7287 59.1271 18.4034C58.2749 19.0781 57.6297 20.0133 57.1918 21.2088C56.7538 22.4044 56.5348 23.7893 56.5348 25.3636C56.5348 26.9498 56.7538 28.3525 57.1918 29.5717C57.6416 30.7791 58.2867 31.7261 59.1271 32.4126C59.9794 33.0874 61.027 33.4247 62.2699 33.4247ZM94.0392 39.5327C91.2338 39.5327 88.8191 38.9645 86.7949 37.8281C84.7826 36.6799 83.2319 35.0582 82.1429 32.9631C81.0539 30.8561 80.5094 28.3643 80.5094 25.4879C80.5094 22.6825 81.0539 20.2204 82.1429 18.1016C83.2319 15.9827 84.7649 14.3314 86.7417 13.1477C88.7303 11.964 91.0622 11.3722 93.7374 11.3722C95.5366 11.3722 97.2116 11.6622 98.7623 12.2422C100.325 12.8104 101.686 13.6686 102.846 14.8168C104.018 15.965 104.929 17.4091 105.58 19.1491C106.231 20.8774 106.557 22.9015 106.557 25.2216V27.299H83.5279V22.6115H99.437C99.437 21.5225 99.2002 20.5578 98.7267 19.7173C98.2533 18.8769 97.5963 18.2199 96.7559 17.7464C95.9273 17.2611 94.9625 17.0185 93.8617 17.0185C92.7135 17.0185 91.6955 17.2848 90.8077 17.8175C89.9318 18.3383 89.2452 19.0426 88.748 19.9304C88.2509 20.8063 87.9964 21.7829 87.9846 22.8601V27.3168C87.9846 28.6662 88.2331 29.8321 88.7303 30.8146C89.2393 31.7971 89.9554 32.5547 90.8787 33.0874C91.802 33.62 92.897 33.8864 94.1635 33.8864C95.004 33.8864 95.7734 33.768 96.4718 33.5312C97.1702 33.2945 97.7679 32.9394 98.2651 32.4659C98.7623 31.9924 99.141 31.4124 99.4015 30.7259L106.397 31.1875C106.042 32.8684 105.314 34.3362 104.213 35.5909C103.124 36.8338 101.716 37.8045 99.9874 38.5028C98.271 39.1894 96.2883 39.5327 94.0392 39.5327ZM121.543 39.4439C119.471 39.4439 117.595 38.9112 115.914 37.8459C114.245 36.7687 112.919 35.1884 111.937 33.1051C110.966 31.0099 110.481 28.4413 110.481 25.3991C110.481 22.2741 110.984 19.6759 111.99 17.6044C112.996 15.5211 114.334 13.9645 116.003 12.9347C117.684 11.893 119.525 11.3722 121.525 11.3722C123.052 11.3722 124.325 11.6326 125.343 12.1534C126.372 12.6624 127.201 13.3016 127.828 14.071C128.468 14.8286 128.953 15.5743 129.284 16.3082H129.515V2.63636H137.061V39H129.604V34.6321H129.284C128.929 35.3897 128.426 36.1413 127.775 36.8871C127.136 37.621 126.301 38.2306 125.271 38.7159C124.253 39.2012 123.011 39.4439 121.543 39.4439ZM123.94 33.4247C125.159 33.4247 126.189 33.0933 127.029 32.4304C127.882 31.7557 128.533 30.8146 128.982 29.6072C129.444 28.3999 129.675 26.9853 129.675 25.3636C129.675 23.742 129.45 22.3333 129 21.1378C128.55 19.9422 127.899 19.0189 127.047 18.3679C126.195 17.7169 125.159 17.3913 123.94 17.3913C122.697 17.3913 121.649 17.7287 120.797 18.4034C119.945 19.0781 119.3 20.0133 118.862 21.2088C118.424 22.4044 118.205 23.7893 118.205 25.3636C118.205 26.9498 118.424 28.3525 118.862 29.5717C119.311 30.7791 119.957 31.7261 120.797 32.4126C121.649 33.0874 122.697 33.4247 123.94 33.4247ZM168.706 11.7273L159.172 39H150.649L141.114 11.7273H149.104L154.768 31.2408H155.052L160.699 11.7273H168.706ZM172.577 39V11.7273H180.141V39H172.577ZM176.377 8.21165C175.252 8.21165 174.288 7.83878 173.483 7.09304C172.69 6.33546 172.293 5.42992 172.293 4.37642C172.293 3.33475 172.69 2.44105 173.483 1.69531C174.288 0.937735 175.252 0.558947 176.377 0.558947C177.501 0.558947 178.46 0.937735 179.253 1.69531C180.058 2.44105 180.461 3.33475 180.461 4.37642C180.461 5.42992 180.058 6.33546 179.253 7.09304C178.46 7.83878 177.501 8.21165 176.377 8.21165ZM208.892 19.5043L201.967 19.9304C201.849 19.3385 201.594 18.8059 201.204 18.3324C200.813 17.8471 200.298 17.4624 199.659 17.1783C199.032 16.8823 198.28 16.7344 197.404 16.7344C196.232 16.7344 195.244 16.983 194.439 17.4801C193.634 17.9654 193.231 18.6165 193.231 19.4332C193.231 20.0843 193.492 20.6347 194.013 21.0845C194.533 21.5343 195.427 21.8954 196.694 22.1676L201.63 23.1619C204.281 23.7064 206.258 24.5824 207.56 25.7898C208.862 26.9972 209.513 28.5833 209.513 30.5483C209.513 32.3357 208.987 33.9041 207.933 35.2536C206.891 36.603 205.459 37.6565 203.636 38.4141C201.825 39.1598 199.736 39.5327 197.368 39.5327C193.758 39.5327 190.882 38.781 188.739 37.2777C186.608 35.7625 185.36 33.7029 184.993 31.0987L192.432 30.7081C192.657 31.8089 193.202 32.6494 194.066 33.2294C194.93 33.7976 196.037 34.0817 197.386 34.0817C198.712 34.0817 199.777 33.8272 200.582 33.3182C201.399 32.7973 201.813 32.1286 201.825 31.3118C201.813 30.6252 201.523 30.063 200.955 29.625C200.387 29.1752 199.511 28.8319 198.327 28.5952L193.604 27.6541C190.941 27.1214 188.958 26.1982 187.656 24.8842C186.366 23.5703 185.721 21.8954 185.721 19.8594C185.721 18.1075 186.194 16.5982 187.141 15.3317C188.1 14.0651 189.443 13.0885 191.172 12.402C192.912 11.7154 194.948 11.3722 197.28 11.3722C200.724 11.3722 203.435 12.1001 205.412 13.5561C207.4 15.0121 208.56 16.9948 208.892 19.5043ZM226.599 39.5327C223.841 39.5327 221.455 38.9467 219.443 37.7749C217.443 36.5911 215.898 34.9458 214.809 32.8388C213.72 30.7199 213.175 28.2637 213.175 25.4702C213.175 22.6529 213.72 20.1908 214.809 18.0838C215.898 15.965 217.443 14.3196 219.443 13.1477C221.455 11.964 223.841 11.3722 226.599 11.3722C229.357 11.3722 231.736 11.964 233.737 13.1477C235.749 14.3196 237.299 15.965 238.388 18.0838C239.478 20.1908 240.022 22.6529 240.022 25.4702C240.022 28.2637 239.478 30.7199 238.388 32.8388C237.299 34.9458 235.749 36.5911 233.737 37.7749C231.736 38.9467 229.357 39.5327 226.599 39.5327ZM226.634 33.6733C227.889 33.6733 228.937 33.3182 229.777 32.608C230.617 31.8859 231.251 30.9034 231.677 29.6605C232.115 28.4176 232.334 27.0031 232.334 25.4169C232.334 23.8307 232.115 22.4162 231.677 21.1733C231.251 19.9304 230.617 18.9479 229.777 18.2259C228.937 17.5038 227.889 17.1428 226.634 17.1428C225.368 17.1428 224.302 17.5038 223.438 18.2259C222.586 18.9479 221.941 19.9304 221.503 21.1733C221.077 22.4162 220.864 23.8307 220.864 25.4169C220.864 27.0031 221.077 28.4176 221.503 29.6605C221.941 30.9034 222.586 31.8859 223.438 32.608C224.302 33.3182 225.368 33.6733 226.634 33.6733ZM244.94 39V11.7273H252.273V16.4858H252.558C253.055 14.7931 253.889 13.5147 255.061 12.6506C256.233 11.7746 257.582 11.3366 259.109 11.3366C259.488 11.3366 259.897 11.3603 260.335 11.4077C260.772 11.455 261.157 11.5201 261.489 11.603V18.3146C261.134 18.2081 260.642 18.1134 260.015 18.0305C259.388 17.9477 258.813 17.9062 258.293 17.9062C257.18 17.9062 256.186 18.1489 255.31 18.6342C254.446 19.1077 253.759 19.7706 253.25 20.6229C252.753 21.4751 252.504 22.4576 252.504 23.5703V39H244.94Z" fill="black"/>
</svg>
