<svg width="50" height="50" viewBox="0 0 50 50" fill="none" xmlns="http://www.w3.org/2000/svg">
<rect x="1" y="1" width="48" height="48" rx="24" fill="#C7C7C7"/>
<path fill-rule="evenodd" clip-rule="evenodd" d="M32.2003 20.2C32.2003 24.1765 28.9767 27.4 25.0003 27.4C21.0238 27.4 17.8003 24.1765 17.8003 20.2C17.8003 16.2235 21.0238 13 25.0003 13C28.9767 13 32.2003 16.2235 32.2003 20.2ZM29.8003 20.2C29.8003 22.851 27.6513 25 25.0003 25C22.3493 25 20.2003 22.851 20.2003 20.2C20.2003 17.549 22.3493 15.4 25.0003 15.4C27.6513 15.4 29.8003 17.549 29.8003 20.2Z" fill="#79747E"/>
<path d="M25.0003 31C17.231 31 10.6114 35.5941 8.08984 42.0305C8.70412 42.6404 9.35121 43.2174 10.0282 43.7585C11.9059 37.8492 17.7964 33.4 25.0003 33.4C32.2042 33.4 38.0947 37.8492 39.9724 43.7585C40.6494 43.2174 41.2965 42.6404 41.9108 42.0305C39.3892 35.5941 32.7696 31 25.0003 31Z" fill="#79747E"/>
</svg>
