<svg width="46" height="46" viewBox="0 0 46 46" fill="none" xmlns="http://www.w3.org/2000/svg">
<rect x="0.00195312" width="46" height="46" rx="22.5" fill="#0085FF"/>
<path d="M21.502 9.60714C21.502 8.71954 22.1735 8 23.002 8C23.8304 8 24.502 8.71954 24.502 9.60714V36.3929C24.502 37.2805 23.8304 38 23.002 38C22.1735 38 21.502 37.2805 21.502 36.3929V9.60714Z" fill="white"/>
<path d="M10.502 24.6071C9.67353 24.6071 9.00195 23.8876 9.00195 23C9.00195 22.1124 9.67353 21.3929 10.502 21.3929H35.502C36.3304 21.3929 37.002 22.1124 37.002 23C37.002 23.8876 36.3304 24.6071 35.502 24.6071H10.502Z" fill="white"/>
</svg>
