<svg width="25" height="24" viewBox="0 0 25 24" fill="none" xmlns="http://www.w3.org/2000/svg">
<path fill-rule="evenodd" clip-rule="evenodd" d="M15.1609 13.27L20.8909 19L19.4009 20.49L13.6709 14.76C12.6009 15.53 11.3109 16 9.90088 16C6.31088 16 3.40088 13.09 3.40088 9.5C3.40088 5.91 6.31088 3 9.90088 3C13.4909 3 16.4009 5.91 16.4009 9.5C16.4009 10.91 15.9309 12.2 15.1609 13.27ZM9.90088 5C7.41088 5 5.40088 7.01 5.40088 9.5C5.40088 11.99 7.41088 14 9.90088 14C12.3909 14 14.4009 11.99 14.4009 9.5C14.4009 7.01 12.3909 5 9.90088 5Z" fill="#222020"/>
</svg>
