<svg width="21" height="20" viewBox="0 0 21 20" fill="none" xmlns="http://www.w3.org/2000/svg">
<path d="M8.35742 11.0167L7.82171 12.097L13.7146 15.338H15.3217V11.0167H14.786C14.2503 10.1164 13.1789 7.99177 13.1789 6.69537C13.1789 5.39898 12.1074 5.07488 11.5717 5.07488C10.8574 5.25494 9.21456 5.18294 8.35742 3.45441C7.50028 1.72588 6.57171 2.73419 6.21456 3.45441L4.60742 6.15521L7.28599 7.77573C9.00028 8.63999 8.71456 10.2965 8.35742 11.0167Z" fill="#222020"/>
<path d="M3.00035 11.5568C1.71464 10.6926 2.10749 9.93634 2.46463 9.39618C2.46464 9.93634 3.53607 10.4765 3.53607 10.4765L12.6432 15.8782C13.7146 16.4183 14.0718 16.4183 14.2504 16.4183H18.0004C18.4289 16.4183 18.8932 16.0582 19.0718 15.8782C18.6432 17.6067 17.4646 17.4986 16.9289 17.4986H13.7146C13.1789 17.4986 12.5176 17.179 12.1075 16.9585C9.42892 15.518 4.28607 12.4211 3.00035 11.5568Z" fill="#222020"/>
<path d="M3 8.85603C3 8.31587 4.07143 6.69537 4.07143 6.69537L6.75 8.31587C7.82143 8.85603 7.82143 9.93636 7.8214 10.4765C7.82138 10.9482 7.28571 11.5569 7.28571 11.5569L4.07143 9.93636C4.07143 9.93636 3 9.3962 3 8.85603Z" fill="#222020"/>
<path d="M16.3926 11.0167V15.338H17.9997C18.8569 15.338 19.0711 14.9779 19.0711 14.7979C19.0711 12.2051 17.2854 11.1968 16.3926 11.0167Z" fill="#222020"/>
<path d="M11.5 7.54016L13.6429 7" stroke="white" stroke-linecap="round"/>
<rect x="4.07129" y="16.4183" width="11.7857" height="1.08033" rx="0.540165" fill="#222020"/>
<rect x="1.92871" y="14.2577" width="4.28571" height="1.08033" rx="0.540165" fill="#222020"/>
<path d="M12.5 9.54016L14.6429 9" stroke="white" stroke-linecap="round"/>
</svg>
