<svg width="187" height="174" viewBox="0 0 187 174" fill="none" xmlns="http://www.w3.org/2000/svg">
<path d="M184 168.5C184 174 144.841 174 96.4997 174C48.158 174 10.0783 173.893 8.9997 168.5C7.92105 163.107 48.158 163 96.4997 163C144.79 163.06 184 163 184 168.5Z" fill="#E2E2DE"/>
<path d="M184.981 46.6084C185.696 44.4999 181 40.5001 178.9 42.4368C176.853 43.9962 179.777 43.8988 180.508 45.1171C182.501 46.0003 179.011 50.0993 177.5 51.9999C175.99 53.9004 173.5 55.599 170.5 55.4999C167.5 55.4007 157.081 50.3303 151 47.9999C144.92 45.6694 142.557 44.3467 140.5 46.6077C137.878 47.6505 97.748 111.5 97.748 113.567C97.6408 113.499 99.824 115.039 99.9994 115C99.9702 115.283 100.185 115.419 100.643 115.409C104.499 113.567 139.723 52.5865 143.557 50.7015C146 49.4999 155.5 54.7564 159.001 56.0003C163.5 57.5994 167.5 59.4999 171.5 59.4999C174.002 59.4999 177.222 57.4999 179.796 54.7564C182 52.4075 184 49.4999 184.981 46.6084Z" fill="#202530"/>
<path d="M83.5 167.5C78.917 169.761 70.5 169 70.5 169L60 141L94 146.5C94 146.5 91.7226 163.443 83.5 167.5Z" fill="white"/>
<path fill-rule="evenodd" clip-rule="evenodd" d="M62.1947 35H96.8462C116.647 35 127.098 40.5114 131.498 49.8807C139.748 66.4147 139.198 105.545 107.847 101.136H91.346C90.7959 103.341 90.7959 107.75 90.7959 108.852C90.7959 112.71 93.5461 114.915 97.9463 116.017C105.647 117.67 104.547 128.693 97.3962 129.244H95.1962C89.6959 129.244 90.796 138.614 95.1962 138.614C104.547 139.165 108.397 148.534 106.747 157.903C113.347 157.903 114.447 169.477 106.747 168.375H79.2454C98.4963 156.801 81.4455 122.631 83.0956 101.687H62.1947C52.8442 101.136 49.5441 103.892 49.5441 109.403C49.5441 113.261 52.2942 115.466 56.6944 116.568C64.3948 118.221 63.2947 129.244 56.1444 129.795H50.6442C45.1439 129.795 46.244 139.165 50.6442 139.165C69.895 136.96 73.7452 149.085 71.5451 158.454C78.1454 158.454 79.2454 170.028 71.5451 168.926H37.9936C24.793 168.926 18.1927 161.21 17.6427 143.023C16.5426 143.574 14.8926 143.574 13.7925 143.574H9.94233C4.44208 143.574 -0.508132 138.614 0.0418925 133.102C0.0418925 127.591 4.99212 122.631 10.4924 123.182H14.3425C15.4426 123.182 16.5426 123.733 17.6427 123.733V105.545C16.5426 105.545 15.4426 106.097 14.8926 106.097H11.0424C5.54214 106.097 0.591921 101.136 1.14195 95.6249C1.14195 90.1136 6.09215 85.1534 11.5924 85.7045H15.4426C16.5426 85.7045 17.0927 85.7045 17.6427 86.2556V80.7443C17.6427 76.8863 18.1927 73.0284 18.7427 69.7215C17.6427 69.7215 16.5426 69.7215 15.4426 69.1704L12.1424 68.0681C6.64219 66.4147 3.34205 60.9034 4.99212 55.392C6.6422 49.8807 12.1424 46.5739 17.6427 48.2273L20.9428 49.3295C22.5929 49.8807 24.243 50.9829 25.343 52.0852C34.1434 42.7159 45.1439 36.6534 62.1947 35Z" fill="url(#paint0_linear_1449_10429)"/>
<path d="M57.4505 76.9432C63.2221 76.9432 67.9009 72.2549 67.9009 66.4716C67.9009 60.6883 63.2221 56 57.4505 56C51.6788 56 47 60.6883 47 66.4716C47 72.2549 51.6788 76.9432 57.4505 76.9432Z" fill="#FEFEFE"/>
<path d="M122.148 62.0067C123.97 62.0067 125.448 59.2924 125.448 55.9442C125.448 52.596 123.97 49.8817 122.148 49.8817C120.325 49.8817 118.848 52.596 118.848 55.9442C118.848 59.2924 120.325 62.0067 122.148 62.0067Z" fill="#FEFEFE"/>
<path d="M102.19 90.3678C97.6217 95.454 84.9997 94.0517 84.9997 83" stroke="white" stroke-width="3" stroke-linecap="round"/>
<circle cx="56.9551" cy="66.4648" r="4" fill="#0085FF"/>
<path d="M108.452 113.869C109.329 113.674 109.631 112.963 110.148 112.388C110.596 111.92 110.908 111.666 111.551 112.076C112.088 112.417 112.166 112.768 111.932 113.372C111.532 114.473 110.742 115.477 110.128 116.442C109.651 117.193 109.115 116.852 108.403 116.549C105.44 114.815 105.44 114.815 103.53 117.816C99.4364 124.249 95.411 130.575 91.3174 137.007C89.8164 139.366 89.1147 139.522 86.8632 138.089C85.8983 137.475 84.9334 136.861 83.9685 136.247C81.5027 134.678 81.3078 133.8 82.877 131.335C86.0837 126.296 89.2903 121.257 92.497 116.218C93.6569 114.395 94.8849 112.465 96.0448 110.643C96.7271 109.571 96.6101 109.044 95.538 108.362C92.965 106.725 92.9649 106.725 94.6024 104.152C94.6706 104.044 94.8071 103.83 94.8753 103.723C95.4601 103.041 95.7135 101.696 96.9318 102.622C98.1112 103.372 97.2827 104.2 96.6979 104.883C96.0839 105.848 96.308 106.442 97.2339 106.881C98.7641 107.553 106.941 112.456 108.452 113.869Z" fill="#FE9715"/>
<path d="M175.878 49.5518C174.377 51.9105 172.136 52.5927 170.42 51.5011C154.553 41.4035 138.793 31.3741 122.926 21.2765C120.782 19.912 120.636 18.0114 122.409 15.2239C124.729 11.5787 126.981 8.04082 129.3 4.39565C131.347 1.17933 133.17 0.682267 135.636 2.25149C151.074 12.0762 166.62 21.9691 182.058 31.7938C184.738 33.4995 184.923 35.5755 182.808 38.899C182.019 39.9029 176.697 48.2653 175.878 49.5518Z" fill="#FE9715"/>
<path d="M89.0482 32.9178C89.0482 32.9178 91.4259 39.7567 68.8946 45.8375C46.3632 51.9184 26.0527 48.5952 26.0527 48.5952L89.0482 32.9178Z" fill="#E8B031"/>
<path d="M87.0585 31.5724C87.0585 31.5724 47.5279 44.7203 26.4141 45.8835C26.4141 45.8835 18.3219 15.2333 49.5554 8.19689C80.7544 1.21641 87.0585 31.5724 87.0585 31.5724Z" fill="#E8B031"/>
<path d="M43.604 9.0757L50.515 7.20611C61.2733 13.5473 68.6702 34.5745 68.6702 34.5745L52.2227 39.1242C48.9228 17.6553 43.604 9.0757 43.604 9.0757Z" fill="#FFD93B"/>
<path d="M43.5936 9.03204C43.5936 9.03204 51.2144 22.511 51.7767 36.2234L50.4653 36.5329C50.4653 36.5329 48.1234 19.3256 42.2217 10.5016L43.5936 9.03204Z" fill="#FCE37C"/>
<path d="M25.1829 41.8773L26.052 48.5948C26.052 48.5948 48.4295 47.3244 89.0927 32.9066L86.7257 26.113C86.6804 26.1237 49.8733 37.865 25.1829 41.8773Z" fill="#FFD93B"/>
<path d="M77.7272 42.6067C77.7272 42.6067 58.0765 51.5884 26.0515 48.5948L26.3133 50.1085C26.3133 50.1085 57.1832 52.6585 77.7272 42.6067Z" fill="#FFD93B"/>
<path opacity="0.6" d="M39.1581 12.0832C39.9468 13.8068 40.4936 15.9216 41.0297 17.9912C42.908 25.9505 38.6704 35.3053 29.5632 35.3538C28.177 35.3467 26.8386 35.1374 25.5479 34.7258C26.0513 27.3503 28.9266 17.8873 39.1581 12.0832Z" fill="#F7D64B"/>
<path d="M145.233 156.102C145.233 155.993 145.233 155.83 145.233 155.721C145.288 158.221 145.288 160.666 145.342 163.166C145.342 164.85 144.962 166.155 143.875 167.404C144.907 168.219 147.298 168.002 148.44 167.187C151.972 164.687 146.809 155.341 148.494 154.417L145.233 156.102Z" fill="#E8B031"/>
<path d="M155.287 155.667C154.852 156.482 155.341 158.547 155.341 159.525C155.341 160.992 155.395 162.405 155.395 163.872C155.395 165.013 153.928 167.73 154.635 168.654C155.721 170.121 158.493 168.437 159.199 167.241C159.797 166.209 159.471 164.633 159.471 163.492C159.471 161.21 158.71 158.927 158.819 156.699L155.287 155.667Z" fill="#E8B031"/>
<path d="M132.029 142.135C131.105 143.385 130.507 144.635 129.257 145.667C127.953 146.754 126.323 146.971 124.693 147.297C122.574 147.732 120.78 149.851 123.063 151.427C125.617 153.221 130.181 150.721 132.137 149.036C133.061 148.276 134.854 146.645 134.746 145.341C134.746 144.744 132.137 141.972 132.029 142.135Z" fill="#E8B031"/>
<path d="M171.153 148.33C171.045 148.439 175.229 153.003 175.609 153.275C176.587 154.036 177.892 154.905 179.141 154.633C181.261 154.199 181.641 151.482 179.902 150.177C178 148.765 175.99 147.297 174.523 145.396C174.523 145.396 171.153 148.276 171.153 148.33Z" fill="#E8B031"/>
<path d="M136.647 147.95C135.995 148.711 119.965 141.212 126.595 130.888C130.507 124.802 140.288 126.595 144.635 131.594C143.059 124.747 146.102 112.249 155.829 114.205C162.73 115.564 163.22 128.714 159.742 134.746C163.546 130.996 174.522 129.909 177.728 136.104C181.478 143.494 173.924 150.396 167.295 150.559C169.849 150.504 173.761 158.873 167.621 162.948C158.166 169.251 148.765 153.819 150.124 153.113C140.451 172.947 122.084 158.981 136.647 147.95Z" fill="#FFD93B"/>
<path d="M154.254 120.726C154.254 120.183 154.362 119.639 154.634 119.204C157.731 114.096 160.72 123.008 159.144 125.943C157.677 128.823 154.199 123.932 154.254 120.726Z" fill="#FFFEFF"/>
<path d="M166.426 135.669C166.426 135.615 166.426 135.615 166.371 135.561C165.176 131.703 174.631 132.518 173.273 135.778C172.349 138.06 167.295 138.06 166.426 135.669Z" fill="#FFFEFF"/>
<path d="M146.265 135.452C143.603 134.8 141.918 137.734 142.081 139.962C142.136 140.777 143.385 140.669 143.331 139.854C143.222 138.169 144.418 135.995 146.428 136.756C147.841 137.3 147.896 139.528 147.896 140.777C147.896 141.592 149.145 141.429 149.145 140.669C149.091 138.549 148.656 136.05 146.265 135.452Z" fill="#4C594F"/>
<path d="M158.112 136.539C155.286 135.941 153.439 138.984 153.656 141.43C153.71 142.245 154.96 142.136 154.906 141.321C154.797 139.691 156.101 136.865 158.166 137.843C159.416 138.441 159.47 140.723 159.47 141.864C159.47 142.679 160.72 142.516 160.72 141.756C160.611 139.962 160.231 136.974 158.112 136.539Z" fill="#4C594F"/>
<path d="M159.959 145.186C155.395 149.914 146.809 150.403 142.353 145.241C141.864 144.643 140.832 145.349 141.321 145.947C146.266 151.707 155.721 151.327 160.883 146.002C161.481 145.404 160.503 144.643 159.959 145.186Z" fill="#4C594F"/>
<defs>
<linearGradient id="paint0_linear_1449_10429" x1="41" y1="91.1248" x2="12.9998" y2="92.1226" gradientUnits="userSpaceOnUse">
<stop stop-color="#0085FF"/>
<stop offset="1" stop-color="#156AE1"/>
</linearGradient>
</defs>
</svg>
