<svg width="41" height="40" viewBox="0 0 41 40" fill="none" xmlns="http://www.w3.org/2000/svg">
<path d="M20.5 40C31.5457 40 40.5 31.0457 40.5 20C40.5 8.9543 31.5457 0 20.5 0C9.45431 0 0.5 8.9543 0.5 20C0.5 31.0457 9.45431 40 20.5 40Z" fill="#0085FF"/>
<path fill-rule="evenodd" clip-rule="evenodd" d="M20.2403 27.9403H21.6739C21.6739 27.9403 22.1073 27.8903 22.3288 27.6471C22.5308 27.4239 22.5243 27.004 22.5243 27.004C22.5243 27.004 22.495 25.0349 23.391 24.745C24.2708 24.4585 25.4014 26.6475 26.6005 27.4905C27.5063 28.1269 28.197 27.9869 28.197 27.9869L31.4032 27.9403C31.4032 27.9403 33.0812 27.8337 32.2862 26.4876C32.221 26.3777 31.8235 25.4914 29.9044 23.6689C27.894 21.7597 28.1644 22.0696 30.5854 18.771C32.0581 16.7619 32.6479 15.5358 32.4654 15.0093C32.2894 14.5096 31.2044 14.6395 31.2044 14.6395L27.5942 14.6628C27.5942 14.6628 27.3271 14.6262 27.1283 14.7461C26.9328 14.8661 26.809 15.1426 26.809 15.1426C26.809 15.1426 26.2388 16.6986 25.4763 18.0213C23.87 20.8101 23.2281 20.96 22.9642 20.7868C22.3516 20.3836 22.5048 19.1642 22.5048 18.2979C22.5048 15.5924 22.9056 14.4662 21.7228 14.173C21.3318 14.0764 21.0418 14.0131 20.0383 14.0031C18.7512 13.9898 17.6597 14.0064 17.0439 14.3163C16.6333 14.5229 16.3173 14.9793 16.5095 15.006C16.7474 15.0393 17.2883 15.1559 17.575 15.5524C17.9464 16.0655 17.9334 17.2217 17.9334 17.2217C17.9334 17.2217 18.1452 20.4036 17.4381 20.8001C16.9527 21.07 16.2847 20.5169 14.8511 17.9847C14.1179 16.6886 13.564 15.2559 13.564 15.2559C13.564 15.2559 13.4565 14.9893 13.2675 14.8461C13.0362 14.6728 12.7136 14.6162 12.7136 14.6162L9.28263 14.6395C9.28263 14.6395 8.76782 14.6528 8.57884 14.8827C8.40941 15.086 8.5658 15.5091 8.5658 15.5091C8.5658 15.5091 11.2506 21.9329 14.2906 25.1682C17.0765 28.1335 20.2403 27.9403 20.2403 27.9403Z" fill="white"/>
</svg>
